{"accessors":[{"bufferView":2,"componentType":5126,"count":51,"max":[23.061880111694336,178.4655303955078,44.48234939575195],"min":[3.677906036376953,159.0872039794922,30.50177764892578],"type":"VEC3"},{"bufferView":2,"byteOffset":612,"componentType":5126,"count":51,"max":[0.9998244047164917,0.9994744062423706,0.9715844988822937],"min":[-0.9957427382469177,-0.9911928772926331,-0.9715845584869385],"type":"VEC3"},{"bufferView":1,"componentType":5126,"count":51,"max":[0.875,1],"min":[0.125,0],"type":"VEC2"},{"bufferView":0,"componentType":5125,"count":192,"type":"SCALAR"},{"bufferView":2,"byteOffset":1224,"componentType":5126,"count":51,"max":[-3.677906036376953,178.4655303955078,44.48234939575195],"min":[-23.06188201904297,159.0872039794922,30.50177764892578],"type":"VEC3"},{"bufferView":2,"byteOffset":1836,"componentType":5126,"count":51,"max":[0.9957427382469177,0.9994744062423706,0.9715846180915833],"min":[-0.9998244047164917,-0.9911923408508301,-0.9715846180915833],"type":"VEC3"},{"bufferView":1,"byteOffset":408,"componentType":5126,"count":51,"max":[0.875,1],"min":[0.125,0],"type":"VEC2"},{"bufferView":0,"byteOffset":768,"componentType":5125,"count":192,"type":"SCALAR"},{"bufferView":2,"byteOffset":2448,"componentType":5126,"count":123,"max":[8.776405334472656,158.23171997070312,77.52545928955078],"min":[-8.776405334472656,140.0249786376953,34.0538215637207],"type":"VEC3"},{"bufferView":2,"byteOffset":3924,"componentType":5126,"count":123,"max":[0.9948098063468933,0.9975426197052002,0.9840519428253174],"min":[-0.9948098063468933,-0.9999870657920837,-0.9840517640113831],"type":"VEC3"},{"bufferView":1,"byteOffset":816,"componentType":5126,"count":123,"max":[0.875,1],"min":[0.125,-6.637572269596603e-9],"type":"VEC2"},{"bufferView":0,"byteOffset":1536,"componentType":5125,"count":480,"type":"SCALAR"},{"bufferView":2,"byteOffset":5400,"componentType":5126,"count":125,"max":[42.825523376464844,205.34405517578125,42.825523376464844],"min":[-42.825523376464844,119.69297790527344,-42.825523376464844],"type":"VEC3"},{"bufferView":2,"byteOffset":6900,"componentType":5126,"count":125,"max":[1,1,0.9999999403953552],"min":[-1,-1,-0.9999999403953552],"type":"VEC3"},{"bufferView":1,"byteOffset":1800,"componentType":5126,"count":125,"max":[0.875,1],"min":[0.125,0],"type":"VEC2"},{"bufferView":0,"byteOffset":3456,"componentType":5125,"count":576,"type":"SCALAR"},{"bufferView":2,"byteOffset":8400,"componentType":5126,"count":392,"max":[39.55171203613281,260.2730407714844,39.5470085144043],"min":[-39.55171585083008,235.2097930908203,-39.5470085144043],"type":"VEC3"},{"bufferView":2,"byteOffset":13104,"componentType":5126,"count":392,"max":[0.9999966621398926,0.9935575723648071,0.9998943209648132],"min":[-0.9999966025352478,-0.9983733296394348,-0.9998943209648132],"type":"VEC3"},{"bufferView":1,"byteOffset":2800,"componentType":5126,"count":392,"max":[1,0.8179452419281006],"min":[-6.064098556635145e-9,0.5740107297897339],"type":"VEC2"},{"bufferView":0,"byteOffset":5760,"componentType":5125,"count":1152,"type":"SCALAR"},{"bufferView":2,"byteOffset":17808,"componentType":5126,"count":709,"max":[57.49523162841797,300,57.68024826049805],"min":[-57.495243072509766,225.7670135498047,-57.68024826049805],"type":"VEC3"},{"bufferView":2,"byteOffset":26316,"componentType":5126,"count":709,"max":[0.9995200037956238,1,0.9998444318771362],"min":[-0.999519944190979,-0.9999966025352478,-0.999844491481781],"type":"VEC3"},{"bufferView":1,"byteOffset":5936,"componentType":5126,"count":709,"max":[1,1],"min":[0,3.3793622122857414e-8],"type":"VEC2"},{"bufferView":0,"byteOffset":10368,"componentType":5125,"count":2112,"type":"SCALAR"},{"bufferView":2,"byteOffset":34824,"componentType":5126,"count":51,"max":[10.859611511230469,113.1265869140625,64.0328369140625],"min":[-10.859611511230469,92.2744369506836,45.610679626464844],"type":"VEC3"},{"bufferView":2,"byteOffset":35436,"componentType":5126,"count":51,"max":[0.9860848188400269,0.9738863110542297,0.9988425970077515],"min":[-0.9860847592353821,-0.9419957995414734,-0.9999478459358215],"type":"VEC3"},{"bufferView":1,"byteOffset":11608,"componentType":5126,"count":51,"max":[0.875,1],"min":[0.125,0],"type":"VEC2"},{"bufferView":0,"byteOffset":18816,"componentType":5125,"count":192,"type":"SCALAR"},{"bufferView":2,"byteOffset":36048,"componentType":5126,"count":125,"max":[65.94279479980469,131.77084350585938,65.94279479980469],"min":[-65.94279479980469,0,-65.94279479980469],"type":"VEC3"},{"bufferView":2,"byteOffset":37548,"componentType":5126,"count":125,"max":[0.9997230768203735,1,0.9997230768203735],"min":[-0.9997230768203735,-1,-0.9997230172157288],"type":"VEC3"},{"bufferView":1,"byteOffset":12016,"componentType":5126,"count":125,"max":[0.875,1],"min":[0.125,0],"type":"VEC2"},{"bufferView":0,"byteOffset":19584,"componentType":5125,"count":576,"type":"SCALAR"},{"bufferView":2,"byteOffset":39048,"componentType":5126,"count":51,"max":[10.859611511230469,86.22274017333984,73.8897476196289],"min":[-10.859611511230469,64.56104278564453,58.269779205322266],"type":"VEC3"},{"bufferView":2,"byteOffset":39660,"componentType":5126,"count":51,"max":[0.9860847592353821,0.9903268218040466,0.9903115034103394],"min":[-0.9860847592353821,-0.9996629357337952,-0.9903115034103394],"type":"VEC3"},{"bufferView":1,"byteOffset":13016,"componentType":5126,"count":51,"max":[0.875,1],"min":[0.125,0],"type":"VEC2"},{"bufferView":0,"byteOffset":21888,"componentType":5125,"count":192,"type":"SCALAR"},{"bufferView":2,"byteOffset":40272,"componentType":5126,"count":51,"max":[10.859611511230469,57.001365661621094,74.54682922363281],"min":[-10.859611511230469,35.342716217041016,58.91737365722656],"type":"VEC3"},{"bufferView":2,"byteOffset":40884,"componentType":5126,"count":51,"max":[0.9860848188400269,0.9995388984680176,0.9909133315086365],"min":[-0.9860848188400269,-0.9897063970565796,-0.9909133315086365],"type":"VEC3"},{"bufferView":1,"byteOffset":13424,"componentType":5126,"count":51,"max":[0.875,1],"min":[0.125,0],"type":"VEC2"},{"bufferView":0,"byteOffset":22656,"componentType":5125,"count":192,"type":"SCALAR"},{"bufferView":2,"byteOffset":41496,"componentType":5126,"count":252,"max":[118.30673217773438,231.11105346679688,60.95496368408203],"min":[47.413272857666016,68.5982437133789,13.073619842529297],"type":"VEC3"},{"bufferView":2,"byteOffset":44520,"componentType":5126,"count":252,"max":[0.9714381694793701,0.9725653529167175,0.9601704478263855],"min":[-0.9386646747589111,-0.8278418779373169,-0.9667230844497681],"type":"VEC3"},{"bufferView":1,"byteOffset":13832,"componentType":5126,"count":252,"max":[0.875,1],"min":[0.125,0],"type":"VEC2"},{"bufferView":0,"byteOffset":23424,"componentType":5125,"count":438,"type":"SCALAR"},{"bufferView":2,"byteOffset":47544,"componentType":5126,"count":252,"max":[-47.413272857666016,235.25418090820312,59.88420867919922],"min":[-117.28752136230469,68.5982437133789,13.073619842529297],"type":"VEC3"},{"bufferView":2,"byteOffset":50568,"componentType":5126,"count":252,"max":[0.9386646747589111,0.9725645184516907,0.9601702690124512],"min":[-0.971438467502594,-0.8278416395187378,-0.9667231440544128],"type":"VEC3"},{"bufferView":1,"byteOffset":15848,"componentType":5126,"count":252,"max":[0.875,1],"min":[0.125,0],"type":"VEC2"},{"bufferView":0,"byteOffset":25176,"componentType":5125,"count":438,"type":"SCALAR"},{"bufferView":2,"byteOffset":53592,"componentType":5126,"count":1751,"max":[179.67147827148438,62.25791549682617,187.69406127929688],"min":[-193.60626220703125,7.917446613311768,-192.79510498046875],"type":"VEC3"},{"bufferView":2,"byteOffset":74604,"componentType":5126,"count":1751,"max":[0.988105297088623,0.9998305439949036,0.9985516667366028],"min":[-0.9970793128013611,-0.9998288154602051,-0.9954989552497864],"type":"VEC3"},{"bufferView":1,"byteOffset":17864,"componentType":5126,"count":1751,"max":[1,1],"min":[-0.6140152215957642,-0.6119410991668701],"type":"VEC2"},{"bufferView":0,"byteOffset":26928,"componentType":5125,"count":4548,"type":"SCALAR"},{"bufferView":2,"byteOffset":95616,"componentType":5126,"count":485,"max":[191.3417205810547,59.348480224609375,191.3417205810547],"min":[-191.3417205810547,-0.000030517576306010596,-191.34170532226562],"type":"VEC3"},{"bufferView":2,"byteOffset":101436,"componentType":5126,"count":485,"max":[0.9982156753540039,1,0.9982156753540039],"min":[-0.9982156753540039,-1,-0.9982156753540039],"type":"VEC3"},{"bufferView":1,"byteOffset":31872,"componentType":5126,"count":485,"max":[1,1],"min":[0,0],"type":"VEC2"},{"bufferView":0,"byteOffset":45120,"componentType":5125,"count":1152,"type":"SCALAR"},{"bufferView":2,"byteOffset":107256,"componentType":5126,"count":596,"max":[86.12886810302734,312.00537109375,79.36701965332031],"min":[-77.32106018066406,97.72607421875,-81.9526596069336],"type":"VEC3"},{"bufferView":2,"byteOffset":114408,"componentType":5126,"count":596,"max":[0.9928374886512756,0.9907543063163757,0.9885905385017395],"min":[-0.9883322715759277,-0.9989731907844543,-0.9952395558357239],"type":"VEC3"},{"bufferView":1,"byteOffset":35752,"componentType":5126,"count":596,"max":[1,1],"min":[0,-2.60770320892334e-8],"type":"VEC2"},{"bufferView":0,"byteOffset":49728,"componentType":5125,"count":1584,"type":"SCALAR"},{"bufferView":2,"byteOffset":121560,"componentType":5126,"count":96,"max":[91.4352798461914,297.8619384765625,82.01698303222656],"min":[-75.31456756591797,84.80337524414062,-85.44796752929688],"type":"VEC3"},{"bufferView":2,"byteOffset":122712,"componentType":5126,"count":96,"max":[0.9713817238807678,0.9935372471809387,0.9487617611885071],"min":[-0.9461544156074524,-0.9994429349899292,-0.9802497029304504],"type":"VEC3"},{"bufferView":1,"byteOffset":40520,"componentType":5126,"count":96,"max":[0.875,1],"min":[0.125,0],"type":"VEC2"},{"bufferView":0,"byteOffset":56064,"componentType":5125,"count":432,"type":"SCALAR"},{"bufferView":2,"byteOffset":123864,"componentType":5126,"count":633,"max":[113.10693359375,137.84738159179688,92.55669403076172],"min":[-113.0642318725586,6.279551982879639,-117.7629623413086],"type":"VEC3"},{"bufferView":2,"byteOffset":131460,"componentType":5126,"count":633,"max":[0.9941157698631287,0.9940871596336365,0.9843609929084778],"min":[-0.9980173110961914,-0.9924502372741699,-0.9755023717880249],"type":"VEC3"},{"bufferView":1,"byteOffset":41288,"componentType":5126,"count":633,"max":[1,1.000000238418579],"min":[0,0],"type":"VEC2"},{"bufferView":0,"byteOffset":57792,"componentType":5125,"count":1848,"type":"SCALAR"},{"bufferView":2,"byteOffset":139056,"componentType":5126,"count":70,"max":[106.97233581542969,130.6694793701172,89.19011688232422],"min":[-107.2155532836914,27.28978157043457,-121.17535400390625],"type":"VEC3"},{"bufferView":2,"byteOffset":139896,"componentType":5126,"count":70,"max":[0.9499661922454834,0.7567558884620667,0.9118623733520508],"min":[-0.9145461320877075,-0.9981234073638916,-0.9025842547416687],"type":"VEC3"},{"bufferView":1,"byteOffset":46352,"componentType":5126,"count":70,"max":[0.875,0.75],"min":[0.125,0],"type":"VEC2"},{"bufferView":0,"byteOffset":65184,"componentType":5125,"count":336,"type":"SCALAR"},{"bufferView":2,"byteOffset":140736,"componentType":5126,"count":129,"max":[40.087913513183594,182.73739624023438,34.705841064453125],"min":[-34.79193115234375,-5.581179141998291,-41.46519088745117],"type":"VEC3"},{"bufferView":2,"byteOffset":142284,"componentType":5126,"count":129,"max":[0.9987524151802063,0.999261200428009,0.9965968132019043],"min":[-0.999143660068512,-0.9999842643737793,-0.9965161085128784],"type":"VEC3"},{"bufferView":1,"byteOffset":46912,"componentType":5126,"count":129,"max":[0.875,1.0005041360855103],"min":[0.125,0],"type":"VEC2"},{"bufferView":0,"byteOffset":66528,"componentType":5125,"count":480,"type":"SCALAR"},{"bufferView":2,"byteOffset":143832,"componentType":5126,"count":1684,"max":[52.39787673950195,138.5596466064453,52.072120666503906],"min":[-52.39787673950195,-2.0721168518066406,-52.072120666503906],"type":"VEC3"},{"bufferView":2,"byteOffset":164040,"componentType":5126,"count":1684,"max":[0.9999858140945435,0.999974250793457,0.9999743103981018],"min":[-0.9999857544898987,-0.9999743103981018,-0.9999743103981018],"type":"VEC3"},{"bufferView":1,"byteOffset":47944,"componentType":5126,"count":1684,"max":[0.875,1],"min":[0.125,0],"type":"VEC2"},{"bufferView":0,"byteOffset":68448,"componentType":5125,"count":6888,"type":"SCALAR"},{"bufferView":2,"byteOffset":184248,"componentType":5126,"count":76,"max":[50,50,50],"min":[-50,-50,-50],"type":"VEC3"},{"bufferView":2,"byteOffset":185160,"componentType":5126,"count":76,"max":[0.9998087286949158,0.9998087286949158,0.9998087286949158],"min":[-0.9998087286949158,-0.9998087286949158,-0.9998087286949158],"type":"VEC3"},{"bufferView":1,"byteOffset":61416,"componentType":5126,"count":76,"max":[0.875,1],"min":[0.125,0],"type":"VEC2"},{"bufferView":0,"byteOffset":96000,"componentType":5125,"count":324,"type":"SCALAR"},{"bufferView":2,"byteOffset":186072,"componentType":5126,"count":1684,"max":[52.39787673950195,138.5596466064453,52.072120666503906],"min":[-52.39787673950195,-2.0721168518066406,-52.072120666503906],"type":"VEC3"},{"bufferView":2,"byteOffset":206280,"componentType":5126,"count":1684,"max":[0.9999858140945435,0.999974250793457,0.9999743103981018],"min":[-0.9999857544898987,-0.9999743103981018,-0.9999743103981018],"type":"VEC3"},{"bufferView":1,"byteOffset":62024,"componentType":5126,"count":1684,"max":[0.875,1],"min":[0.125,0],"type":"VEC2"},{"bufferView":0,"byteOffset":97296,"componentType":5125,"count":6888,"type":"SCALAR"},{"bufferView":2,"byteOffset":226488,"componentType":5126,"count":76,"max":[50,50,50],"min":[-50,-50,-50],"type":"VEC3"},{"bufferView":2,"byteOffset":227400,"componentType":5126,"count":76,"max":[0.9998087286949158,0.9998087286949158,0.9998087286949158],"min":[-0.9998087286949158,-0.9998087286949158,-0.9998087286949158],"type":"VEC3"},{"bufferView":1,"byteOffset":75496,"componentType":5126,"count":76,"max":[0.875,1],"min":[0.125,0],"type":"VEC2"},{"bufferView":0,"byteOffset":124848,"componentType":5125,"count":324,"type":"SCALAR"},{"bufferView":2,"byteOffset":228312,"componentType":5126,"count":39,"max":[1.4157464504241943,15,10.376380920410156],"min":[-8.584253311157227,5,0.37638044357299805],"type":"VEC3"},{"bufferView":2,"byteOffset":228780,"componentType":5126,"count":39,"max":[1,1,1],"min":[-1,-1,-1],"type":"VEC3"},{"bufferView":1,"byteOffset":76104,"componentType":5126,"count":39,"max":[0.875,1],"min":[0.125,0],"type":"VEC2"},{"bufferView":0,"byteOffset":126144,"componentType":5125,"count":144,"type":"SCALAR"},{"bufferView":2,"byteOffset":229248,"componentType":5126,"count":39,"max":[34.36698532104492,14.796894073486328,56.76856994628906],"min":[24.77320098876953,5.203102111816406,47.174781799316406],"type":"VEC3"},{"bufferView":2,"byteOffset":229716,"componentType":5126,"count":39,"max":[1,1,1],"min":[-1,-1,-1],"type":"VEC3"},{"bufferView":1,"byteOffset":76416,"componentType":5126,"count":39,"max":[0.875,1],"min":[0.125,0],"type":"VEC2"},{"bufferView":0,"byteOffset":126720,"componentType":5125,"count":144,"type":"SCALAR"},{"bufferView":2,"byteOffset":230184,"componentType":5126,"count":39,"max":[-111.34342956542969,14.24874496459961,-31.593788146972656],"min":[-119.84092712402344,5.751251220703125,-40.091278076171875],"type":"VEC3"},{"bufferView":2,"byteOffset":230652,"componentType":5126,"count":39,"max":[1,1,1],"min":[-1,-1,-1],"type":"VEC3"},{"bufferView":1,"byteOffset":76728,"componentType":5126,"count":39,"max":[0.875,1],"min":[0.125,0],"type":"VEC2"},{"bufferView":0,"byteOffset":127296,"componentType":5125,"count":144,"type":"SCALAR"},{"bufferView":2,"byteOffset":231120,"componentType":5126,"count":39,"max":[13.96063232421875,15,-144.64259338378906],"min":[3.96063232421875,5,-154.642578125],"type":"VEC3"},{"bufferView":2,"byteOffset":231588,"componentType":5126,"count":39,"max":[1,1,1],"min":[-1,-1,-1],"type":"VEC3"},{"bufferView":1,"byteOffset":77040,"componentType":5126,"count":39,"max":[0.875,1],"min":[0.125,0],"type":"VEC2"},{"bufferView":0,"byteOffset":127872,"componentType":5125,"count":144,"type":"SCALAR"},{"bufferView":2,"byteOffset":232056,"componentType":5126,"count":39,"max":[107.15122985839844,15,-62.20475769042969],"min":[97.15122985839844,5,-72.20475769042969],"type":"VEC3"},{"bufferView":2,"byteOffset":232524,"componentType":5126,"count":39,"max":[1,1,1],"min":[-1,-1,-1],"type":"VEC3"},{"bufferView":1,"byteOffset":77352,"componentType":5126,"count":39,"max":[0.875,1],"min":[0.125,0],"type":"VEC2"},{"bufferView":0,"byteOffset":128448,"componentType":5125,"count":144,"type":"SCALAR"},{"bufferView":2,"byteOffset":232992,"componentType":5126,"count":39,"max":[125.96855926513672,15,43.53072738647461],"min":[115.96856689453125,5,33.530723571777344],"type":"VEC3"},{"bufferView":2,"byteOffset":233460,"componentType":5126,"count":39,"max":[1,1,1],"min":[-1,-1,-1],"type":"VEC3"},{"bufferView":1,"byteOffset":77664,"componentType":5126,"count":39,"max":[0.875,1],"min":[0.125,0],"type":"VEC2"},{"bufferView":0,"byteOffset":129024,"componentType":5125,"count":144,"type":"SCALAR"},{"bufferView":2,"byteOffset":233928,"componentType":5126,"count":39,"max":[-14.713394165039062,15,132.24099731445312],"min":[-24.713394165039062,5,122.24099731445312],"type":"VEC3"},{"bufferView":2,"byteOffset":234396,"componentType":5126,"count":39,"max":[1,1,1],"min":[-1,-1,-1],"type":"VEC3"},{"bufferView":1,"byteOffset":77976,"componentType":5126,"count":39,"max":[0.875,1],"min":[0.125,0],"type":"VEC2"},{"bufferView":0,"byteOffset":129600,"componentType":5125,"count":144,"type":"SCALAR"},{"bufferView":2,"byteOffset":234864,"componentType":5126,"count":39,"max":[54.18977737426758,16.69841766357422,172.4701385498047],"min":[40.792945861816406,3.301586151123047,159.07333374023438],"type":"VEC3"},{"bufferView":2,"byteOffset":235332,"componentType":5126,"count":39,"max":[1,1,1],"min":[-1,-1,-1],"type":"VEC3"},{"bufferView":1,"byteOffset":78288,"componentType":5126,"count":39,"max":[0.875,1],"min":[0.125,0],"type":"VEC2"},{"bufferView":0,"byteOffset":130176,"componentType":5125,"count":144,"type":"SCALAR"},{"bufferView":2,"byteOffset":235800,"componentType":5126,"count":39,"max":[-90.73397827148438,14.24874496459961,129.6976318359375],"min":[-99.23146057128906,5.751251220703125,121.20013427734375],"type":"VEC3"},{"bufferView":2,"byteOffset":236268,"componentType":5126,"count":39,"max":[1,1,1],"min":[-1,-1,-1],"type":"VEC3"},{"bufferView":1,"byteOffset":78600,"componentType":5126,"count":39,"max":[0.875,1],"min":[0.125,0],"type":"VEC2"},{"bufferView":0,"byteOffset":130752,"componentType":5125,"count":144,"type":"SCALAR"},{"bufferView":2,"byteOffset":236736,"componentType":5126,"count":39,"max":[-46.17249298095703,14.903118133544922,51.498416900634766],"min":[-55.97873306274414,5.096881866455078,41.692176818847656],"type":"VEC3"},{"bufferView":2,"byteOffset":237204,"componentType":5126,"count":39,"max":[1,1,1],"min":[-1,-1,-1],"type":"VEC3"},{"bufferView":1,"byteOffset":78912,"componentType":5126,"count":39,"max":[0.875,1],"min":[0.125,0],"type":"VEC2"},{"bufferView":0,"byteOffset":131328,"componentType":5125,"count":144,"type":"SCALAR"},{"bufferView":2,"byteOffset":237672,"componentType":5126,"count":39,"max":[36.05736541748047,15,110.15660858154297],"min":[26.05736541748047,5,100.15660095214844],"type":"VEC3"},{"bufferView":2,"byteOffset":238140,"componentType":5126,"count":39,"max":[1,1,1],"min":[-1,-1,-1],"type":"VEC3"},{"bufferView":1,"byteOffset":79224,"componentType":5126,"count":39,"max":[0.875,1],"min":[0.125,0],"type":"VEC2"},{"bufferView":0,"byteOffset":131904,"componentType":5125,"count":144,"type":"SCALAR"},{"bufferView":2,"byteOffset":238608,"componentType":5126,"count":39,"max":[-43.47904968261719,15.804439544677734,-85.59402465820312],"min":[-55.08792495727539,4.195560455322266,-97.20291137695312],"type":"VEC3"},{"bufferView":2,"byteOffset":239076,"componentType":5126,"count":39,"max":[1,1,1],"min":[-1,-1,-1],"type":"VEC3"},{"bufferView":1,"byteOffset":79536,"componentType":5126,"count":39,"max":[0.875,1],"min":[0.125,0],"type":"VEC2"},{"bufferView":0,"byteOffset":132480,"componentType":5125,"count":144,"type":"SCALAR"},{"bufferView":2,"byteOffset":239544,"componentType":5126,"count":39,"max":[161.95590209960938,14.24874496459961,11.417251586914062],"min":[153.45843505859375,5.751251220703125,2.9197616577148438],"type":"VEC3"},{"bufferView":2,"byteOffset":240012,"componentType":5126,"count":39,"max":[1,1,1],"min":[-1,-1,-1],"type":"VEC3"},{"bufferView":1,"byteOffset":79848,"componentType":5126,"count":39,"max":[0.875,1],"min":[0.125,0],"type":"VEC2"},{"bufferView":0,"byteOffset":133056,"componentType":5125,"count":144,"type":"SCALAR"},{"bufferView":2,"byteOffset":240480,"componentType":5126,"count":39,"max":[104.75183868408203,14.39273452758789,107.44002532958984],"min":[95.96636962890625,5.607265472412109,98.65455627441406],"type":"VEC3"},{"bufferView":2,"byteOffset":240948,"componentType":5126,"count":39,"max":[1,1,1],"min":[-1,-1,-1],"type":"VEC3"},{"bufferView":1,"byteOffset":80160,"componentType":5126,"count":39,"max":[0.875,1],"min":[0.125,0],"type":"VEC2"},{"bufferView":0,"byteOffset":133632,"componentType":5125,"count":144,"type":"SCALAR"},{"bufferView":2,"byteOffset":241416,"componentType":5126,"count":39,"max":[-49.751495361328125,15.804439544677734,89.13833618164062],"min":[-61.36037063598633,4.195560455322266,77.52945709228516],"type":"VEC3"},{"bufferView":2,"byteOffset":241884,"componentType":5126,"count":39,"max":[1,1,1],"min":[-1,-1,-1],"type":"VEC3"},{"bufferView":1,"byteOffset":80472,"componentType":5126,"count":39,"max":[0.875,1],"min":[0.125,0],"type":"VEC2"},{"bufferView":0,"byteOffset":134208,"componentType":5125,"count":144,"type":"SCALAR"},{"bufferView":2,"byteOffset":242352,"componentType":5126,"count":39,"max":[-113.29156494140625,15.884872436523438,-72.07264709472656],"min":[-125.0613021850586,4.1151275634765625,-83.84239196777344],"type":"VEC3"},{"bufferView":2,"byteOffset":242820,"componentType":5126,"count":39,"max":[1,1,1],"min":[-1,-1,-1],"type":"VEC3"},{"bufferView":1,"byteOffset":80784,"componentType":5126,"count":39,"max":[0.875,1],"min":[0.125,0],"type":"VEC2"},{"bufferView":0,"byteOffset":134784,"componentType":5125,"count":144,"type":"SCALAR"},{"bufferView":2,"byteOffset":243288,"componentType":5126,"count":39,"max":[-160.48292541503906,14.39273452758789,34.85888671875],"min":[-169.26840209960938,5.607265472412109,26.07342529296875],"type":"VEC3"},{"bufferView":2,"byteOffset":243756,"componentType":5126,"count":39,"max":[1,1,1],"min":[-1,-1,-1],"type":"VEC3"},{"bufferView":1,"byteOffset":81096,"componentType":5126,"count":39,"max":[0.875,1],"min":[0.125,0],"type":"VEC2"},{"bufferView":0,"byteOffset":135360,"componentType":5125,"count":144,"type":"SCALAR"},{"bufferView":2,"byteOffset":244224,"componentType":5126,"count":39,"max":[-160.6269073486328,14.24874496459961,34.714900970458984],"min":[-169.12442016601562,5.751251220703125,26.21741485595703],"type":"VEC3"},{"bufferView":2,"byteOffset":244692,"componentType":5126,"count":39,"max":[1,1,1],"min":[-1,-1,-1],"type":"VEC3"},{"bufferView":1,"byteOffset":81408,"componentType":5126,"count":39,"max":[0.875,1],"min":[0.125,0],"type":"VEC2"},{"bufferView":0,"byteOffset":135936,"componentType":5125,"count":144,"type":"SCALAR"},{"bufferView":2,"byteOffset":245160,"componentType":5126,"count":39,"max":[-122.24099731445312,15,99.98271942138672],"min":[-132.24099731445312,5,89.98272705078125],"type":"VEC3"},{"bufferView":2,"byteOffset":245628,"componentType":5126,"count":39,"max":[1,1,1],"min":[-1,-1,-1],"type":"VEC3"},{"bufferView":1,"byteOffset":81720,"componentType":5126,"count":39,"max":[0.875,1],"min":[0.125,0],"type":"VEC2"},{"bufferView":0,"byteOffset":136512,"componentType":5125,"count":144,"type":"SCALAR"},{"bufferView":2,"byteOffset":246096,"componentType":5126,"count":39,"max":[153.7465362548828,15,77.58113861083984],"min":[143.74652099609375,5,67.58113861083984],"type":"VEC3"},{"bufferView":2,"byteOffset":246564,"componentType":5126,"count":39,"max":[1,1,1],"min":[-1,-1,-1],"type":"VEC3"},{"bufferView":1,"byteOffset":82032,"componentType":5126,"count":39,"max":[0.875,1],"min":[0.125,0],"type":"VEC2"},{"bufferView":0,"byteOffset":137088,"componentType":5125,"count":144,"type":"SCALAR"},{"bufferView":2,"byteOffset":247032,"componentType":5126,"count":39,"max":[-34.552772521972656,15.77008056640625,-147.45675659179688],"min":[-46.092933654785156,4.22991943359375,-158.99691772460938],"type":"VEC3"},{"bufferView":2,"byteOffset":247500,"componentType":5126,"count":39,"max":[1,1,1],"min":[-1,-1,-1],"type":"VEC3"},{"bufferView":1,"byteOffset":82344,"componentType":5126,"count":39,"max":[0.875,1],"min":[0.125,0],"type":"VEC2"},{"bufferView":0,"byteOffset":137664,"componentType":5125,"count":144,"type":"SCALAR"},{"bufferView":2,"byteOffset":247968,"componentType":5126,"count":39,"max":[-99.03497314453125,15.804439544677734,-129.50112915039062],"min":[-110.64385986328125,4.195560455322266,-141.11001586914062],"type":"VEC3"},{"bufferView":2,"byteOffset":248436,"componentType":5126,"count":39,"max":[1,1,1],"min":[-1,-1,-1],"type":"VEC3"},{"bufferView":1,"byteOffset":82656,"componentType":5126,"count":39,"max":[0.875,1],"min":[0.125,0],"type":"VEC2"},{"bufferView":0,"byteOffset":138240,"componentType":5125,"count":144,"type":"SCALAR"},{"bufferView":2,"byteOffset":248904,"componentType":5126,"count":39,"max":[-45.17955017089844,15,-47.86774444580078],"min":[-55.17955017089844,5,-57.867740631103516],"type":"VEC3"},{"bufferView":2,"byteOffset":249372,"componentType":5126,"count":39,"max":[1,1,1],"min":[-1,-1,-1],"type":"VEC3"},{"bufferView":1,"byteOffset":82968,"componentType":5126,"count":39,"max":[0.875,1],"min":[0.125,0],"type":"VEC2"},{"bufferView":0,"byteOffset":138816,"componentType":5125,"count":144,"type":"SCALAR"},{"bufferView":2,"byteOffset":249840,"componentType":5126,"count":39,"max":[139.40951538085938,15,-74.7496337890625],"min":[129.40951538085938,5,-84.74964141845703],"type":"VEC3"},{"bufferView":2,"byteOffset":250308,"componentType":5126,"count":39,"max":[1,1,1],"min":[-1,-1,-1],"type":"VEC3"},{"bufferView":1,"byteOffset":83280,"componentType":5126,"count":39,"max":[0.875,1],"min":[0.125,0],"type":"VEC2"},{"bufferView":0,"byteOffset":139392,"componentType":5125,"count":144,"type":"SCALAR"},{"bufferView":2,"byteOffset":250776,"componentType":5126,"count":39,"max":[87.37014770507812,14.932315826416016,1.3480606079101562],"min":[77.5055160522461,5.067680358886719,-8.51656723022461],"type":"VEC3"},{"bufferView":2,"byteOffset":251244,"componentType":5126,"count":39,"max":[1,1,1],"min":[-1,-1,-1],"type":"VEC3"},{"bufferView":1,"byteOffset":83592,"componentType":5126,"count":39,"max":[0.875,1],"min":[0.125,0],"type":"VEC2"},{"bufferView":0,"byteOffset":139968,"componentType":5125,"count":144,"type":"SCALAR"},{"bufferView":2,"byteOffset":251712,"componentType":5126,"count":39,"max":[41.73860168457031,15,-56.82837677001953],"min":[31.738601684570312,5,-66.82837677001953],"type":"VEC3"},{"bufferView":2,"byteOffset":252180,"componentType":5126,"count":39,"max":[1,1,1],"min":[-1,-1,-1],"type":"VEC3"},{"bufferView":1,"byteOffset":83904,"componentType":5126,"count":39,"max":[0.875,1],"min":[0.125,0],"type":"VEC2"},{"bufferView":0,"byteOffset":140544,"componentType":5125,"count":144,"type":"SCALAR"},{"bufferView":2,"byteOffset":252648,"componentType":5126,"count":39,"max":[-90.0743408203125,15.804439544677734,21.933578491210938],"min":[-101.6832275390625,4.195560455322266,10.324703216552734],"type":"VEC3"},{"bufferView":2,"byteOffset":253116,"componentType":5126,"count":39,"max":[1,1,1],"min":[-1,-1,-1],"type":"VEC3"},{"bufferView":1,"byteOffset":84216,"componentType":5126,"count":39,"max":[0.875,1],"min":[0.125,0],"type":"VEC2"},{"bufferView":0,"byteOffset":141120,"componentType":5125,"count":144,"type":"SCALAR"},{"bufferView":2,"byteOffset":253584,"componentType":5126,"count":39,"max":[56.364410400390625,14.39273452758789,-104.03094482421875],"min":[47.578941345214844,5.607265472412109,-112.81640625],"type":"VEC3"},{"bufferView":2,"byteOffset":254052,"componentType":5126,"count":39,"max":[1,1,1],"min":[-1,-1,-1],"type":"VEC3"},{"bufferView":1,"byteOffset":84528,"componentType":5126,"count":39,"max":[0.875,1],"min":[0.125,0],"type":"VEC2"},{"bufferView":0,"byteOffset":141696,"componentType":5125,"count":144,"type":"SCALAR"},{"bufferView":2,"byteOffset":254520,"componentType":5126,"count":39,"max":[123.18666076660156,16.69841766357422,-116.06227111816406],"min":[109.78982543945312,3.301586151123047,-129.4591064453125],"type":"VEC3"},{"bufferView":2,"byteOffset":254988,"componentType":5126,"count":39,"max":[1,1,1],"min":[-1,-1,-1],"type":"VEC3"},{"bufferView":1,"byteOffset":84840,"componentType":5126,"count":39,"max":[0.875,1],"min":[0.125,0],"type":"VEC2"},{"bufferView":0,"byteOffset":142272,"componentType":5125,"count":144,"type":"SCALAR"},{"bufferView":2,"byteOffset":255456,"componentType":5126,"count":39,"max":[-2.995281219482422,15.069286346435547,-42.42207336425781],"min":[-13.133853912353516,4.9307098388671875,-52.560646057128906],"type":"VEC3"},{"bufferView":2,"byteOffset":255924,"componentType":5126,"count":39,"max":[1,1,1],"min":[-1,-1,-1],"type":"VEC3"},{"bufferView":1,"byteOffset":85152,"componentType":5126,"count":39,"max":[0.875,1],"min":[0.125,0],"type":"VEC2"},{"bufferView":0,"byteOffset":142848,"componentType":5125,"count":144,"type":"SCALAR"},{"bufferView":3,"componentType":5126,"count":121,"max":[4],"min":[0],"type":"SCALAR"},{"bufferView":4,"componentType":5126,"count":121,"max":[49.52496337890625,495.8333435058594,49.799278259277344],"min":[-43.25252151489258,0,0],"type":"VEC3"},{"bufferView":3,"byteOffset":484,"componentType":5126,"count":2,"max":[4],"min":[0],"type":"SCALAR"},{"bufferView":4,"byteOffset":1452,"componentType":5126,"count":2,"max":[1,1,1],"min":[1,1,1],"type":"VEC3"},{"bufferView":3,"byteOffset":492,"componentType":5126,"count":2,"max":[4],"min":[0],"type":"SCALAR"},{"bufferView":5,"componentType":5126,"count":2,"max":[0,0,0,1],"min":[0,0,0,1],"type":"VEC4"},{"bufferView":3,"byteOffset":500,"componentType":5126,"count":121,"max":[4],"min":[0],"type":"SCALAR"},{"bufferView":4,"byteOffset":1476,"componentType":5126,"count":121,"max":[49.52496337890625,495.8333435058594,49.79928207397461],"min":[-43.25252151489258,0,0],"type":"VEC3"},{"bufferView":3,"byteOffset":984,"componentType":5126,"count":2,"max":[4],"min":[0],"type":"SCALAR"},{"bufferView":4,"byteOffset":2928,"componentType":5126,"count":2,"max":[1,1,1],"min":[1,1,1],"type":"VEC3"},{"bufferView":3,"byteOffset":992,"componentType":5126,"count":2,"max":[4],"min":[0],"type":"SCALAR"},{"bufferView":5,"byteOffset":32,"componentType":5126,"count":2,"max":[0,0,0,1],"min":[0,0,0,1],"type":"VEC4"},{"bufferView":3,"byteOffset":1000,"componentType":5126,"count":121,"max":[4],"min":[0],"type":"SCALAR"},{"bufferView":4,"byteOffset":2952,"componentType":5126,"count":121,"max":[49.52496337890625,495.8333435058594,49.79928207397461],"min":[-43.25252151489258,0,0],"type":"VEC3"},{"bufferView":3,"byteOffset":1484,"componentType":5126,"count":2,"max":[4],"min":[0],"type":"SCALAR"},{"bufferView":4,"byteOffset":4404,"componentType":5126,"count":2,"max":[1,1,1],"min":[1,1,1],"type":"VEC3"},{"bufferView":3,"byteOffset":1492,"componentType":5126,"count":2,"max":[4],"min":[0],"type":"SCALAR"},{"bufferView":5,"byteOffset":64,"componentType":5126,"count":2,"max":[0,0,0,1],"min":[0,0,0,1],"type":"VEC4"},{"bufferView":3,"byteOffset":1500,"componentType":5126,"count":121,"max":[4],"min":[0],"type":"SCALAR"},{"bufferView":4,"byteOffset":4428,"componentType":5126,"count":121,"max":[49.52496337890625,500,49.79928207397461],"min":[-43.25252151489258,4.166666507720947,0],"type":"VEC3"},{"bufferView":3,"byteOffset":1984,"componentType":5126,"count":2,"max":[4],"min":[0],"type":"SCALAR"},{"bufferView":4,"byteOffset":5880,"componentType":5126,"count":2,"max":[1,1,1],"min":[1,1,1],"type":"VEC3"},{"bufferView":3,"byteOffset":1992,"componentType":5126,"count":2,"max":[4],"min":[0],"type":"SCALAR"},{"bufferView":5,"byteOffset":96,"componentType":5126,"count":2,"max":[0,0,0,1],"min":[0,0,0,1],"type":"VEC4"},{"bufferView":3,"byteOffset":2000,"componentType":5126,"count":121,"max":[4],"min":[0],"type":"SCALAR"},{"bufferView":4,"byteOffset":5904,"componentType":5126,"count":121,"max":[49.52496337890625,500,49.79928207397461],"min":[-43.25252151489258,4.166666507720947,0],"type":"VEC3"},{"bufferView":3,"byteOffset":2484,"componentType":5126,"count":2,"max":[4],"min":[0],"type":"SCALAR"},{"bufferView":4,"byteOffset":7356,"componentType":5126,"count":2,"max":[1,1,1],"min":[1,1,1],"type":"VEC3"},{"bufferView":3,"byteOffset":2492,"componentType":5126,"count":2,"max":[4],"min":[0],"type":"SCALAR"},{"bufferView":5,"byteOffset":128,"componentType":5126,"count":2,"max":[0,0,0,1],"min":[0,0,0,1],"type":"VEC4"},{"bufferView":3,"byteOffset":2500,"componentType":5126,"count":121,"max":[4],"min":[0],"type":"SCALAR"},{"bufferView":4,"byteOffset":7380,"componentType":5126,"count":121,"max":[49.52496337890625,495.8333435058594,49.79928207397461],"min":[-43.25252151489258,0,0],"type":"VEC3"},{"bufferView":3,"byteOffset":2984,"componentType":5126,"count":2,"max":[4],"min":[0],"type":"SCALAR"},{"bufferView":4,"byteOffset":8832,"componentType":5126,"count":2,"max":[1,1,1],"min":[1,1,1],"type":"VEC3"},{"bufferView":3,"byteOffset":2992,"componentType":5126,"count":2,"max":[4],"min":[0],"type":"SCALAR"},{"bufferView":5,"byteOffset":160,"componentType":5126,"count":2,"max":[0,0,0,1],"min":[0,0,0,1],"type":"VEC4"},{"bufferView":3,"byteOffset":3000,"componentType":5126,"count":121,"max":[4],"min":[0],"type":"SCALAR"},{"bufferView":4,"byteOffset":8856,"componentType":5126,"count":121,"max":[49.52496337890625,495.8333435058594,49.79928207397461],"min":[-43.25252151489258,0,0],"type":"VEC3"},{"bufferView":3,"byteOffset":3484,"componentType":5126,"count":2,"max":[4],"min":[0],"type":"SCALAR"},{"bufferView":4,"byteOffset":10308,"componentType":5126,"count":2,"max":[1,1,1],"min":[1,1,1],"type":"VEC3"},{"bufferView":3,"byteOffset":3492,"componentType":5126,"count":2,"max":[4],"min":[0],"type":"SCALAR"},{"bufferView":5,"byteOffset":192,"componentType":5126,"count":2,"max":[0,0,0,1],"min":[0,0,0,1],"type":"VEC4"},{"bufferView":3,"byteOffset":3500,"componentType":5126,"count":121,"max":[4],"min":[0],"type":"SCALAR"},{"bufferView":4,"byteOffset":10332,"componentType":5126,"count":121,"max":[49.52496337890625,495.8333435058594,49.79928207397461],"min":[-43.25252151489258,0,0],"type":"VEC3"},{"bufferView":3,"byteOffset":3984,"componentType":5126,"count":2,"max":[4],"min":[0],"type":"SCALAR"},{"bufferView":4,"byteOffset":11784,"componentType":5126,"count":2,"max":[1,1,1],"min":[1,1,1],"type":"VEC3"},{"bufferView":3,"byteOffset":3992,"componentType":5126,"count":2,"max":[4],"min":[0],"type":"SCALAR"},{"bufferView":5,"byteOffset":224,"componentType":5126,"count":2,"max":[0,0,0,1],"min":[0,0,0,1],"type":"VEC4"},{"bufferView":3,"byteOffset":4000,"componentType":5126,"count":121,"max":[4],"min":[0],"type":"SCALAR"},{"bufferView":4,"byteOffset":11808,"componentType":5126,"count":121,"max":[49.52496337890625,500,49.79928207397461],"min":[-43.25252151489258,4.166666507720947,0],"type":"VEC3"},{"bufferView":3,"byteOffset":4484,"componentType":5126,"count":2,"max":[4],"min":[0],"type":"SCALAR"},{"bufferView":4,"byteOffset":13260,"componentType":5126,"count":2,"max":[1,1,1],"min":[1,1,1],"type":"VEC3"},{"bufferView":3,"byteOffset":4492,"componentType":5126,"count":2,"max":[4],"min":[0],"type":"SCALAR"},{"bufferView":5,"byteOffset":256,"componentType":5126,"count":2,"max":[0,0,0,1],"min":[0,0,0,1],"type":"VEC4"},{"bufferView":3,"byteOffset":4500,"componentType":5126,"count":121,"max":[4],"min":[0],"type":"SCALAR"},{"bufferView":4,"byteOffset":13284,"componentType":5126,"count":121,"max":[49.52496337890625,495.8333435058594,49.79928207397461],"min":[-43.25252151489258,0,0],"type":"VEC3"},{"bufferView":3,"byteOffset":4984,"componentType":5126,"count":2,"max":[4],"min":[0],"type":"SCALAR"},{"bufferView":4,"byteOffset":14736,"componentType":5126,"count":2,"max":[1,1,1],"min":[1,1,1],"type":"VEC3"},{"bufferView":3,"byteOffset":4992,"componentType":5126,"count":2,"max":[4],"min":[0],"type":"SCALAR"},{"bufferView":5,"byteOffset":288,"componentType":5126,"count":2,"max":[0,0,0,1],"min":[0,0,0,1],"type":"VEC4"},{"bufferView":3,"byteOffset":5000,"componentType":5126,"count":121,"max":[4],"min":[0],"type":"SCALAR"},{"bufferView":4,"byteOffset":14760,"componentType":5126,"count":121,"max":[49.52496337890625,495.8333435058594,49.79928207397461],"min":[-43.25252151489258,0,0],"type":"VEC3"},{"bufferView":3,"byteOffset":5484,"componentType":5126,"count":2,"max":[4],"min":[0],"type":"SCALAR"},{"bufferView":4,"byteOffset":16212,"componentType":5126,"count":2,"max":[1,1,1],"min":[1,1,1],"type":"VEC3"},{"bufferView":3,"byteOffset":5492,"componentType":5126,"count":2,"max":[4],"min":[0],"type":"SCALAR"},{"bufferView":5,"byteOffset":320,"componentType":5126,"count":2,"max":[0,0,0,1],"min":[0,0,0,1],"type":"VEC4"},{"bufferView":3,"byteOffset":5500,"componentType":5126,"count":121,"max":[4],"min":[0],"type":"SCALAR"},{"bufferView":4,"byteOffset":16236,"componentType":5126,"count":121,"max":[49.52496337890625,500,49.79928207397461],"min":[-43.25252151489258,4.166666507720947,0],"type":"VEC3"},{"bufferView":3,"byteOffset":5984,"componentType":5126,"count":2,"max":[4],"min":[0],"type":"SCALAR"},{"bufferView":4,"byteOffset":17688,"componentType":5126,"count":2,"max":[1,1,1],"min":[1,1,1],"type":"VEC3"},{"bufferView":3,"byteOffset":5992,"componentType":5126,"count":2,"max":[4],"min":[0],"type":"SCALAR"},{"bufferView":5,"byteOffset":352,"componentType":5126,"count":2,"max":[0,0,0,1],"min":[0,0,0,1],"type":"VEC4"},{"bufferView":3,"byteOffset":6000,"componentType":5126,"count":121,"max":[4],"min":[0],"type":"SCALAR"},{"bufferView":4,"byteOffset":17712,"componentType":5126,"count":121,"max":[49.52496337890625,495.8333435058594,49.79928207397461],"min":[-43.25252151489258,0,0],"type":"VEC3"},{"bufferView":3,"byteOffset":6484,"componentType":5126,"count":2,"max":[4],"min":[0],"type":"SCALAR"},{"bufferView":4,"byteOffset":19164,"componentType":5126,"count":2,"max":[1,1,1],"min":[1,1,1],"type":"VEC3"},{"bufferView":3,"byteOffset":6492,"componentType":5126,"count":2,"max":[4],"min":[0],"type":"SCALAR"},{"bufferView":5,"byteOffset":384,"componentType":5126,"count":2,"max":[0,0,0,1],"min":[0,0,0,1],"type":"VEC4"},{"bufferView":3,"byteOffset":6500,"componentType":5126,"count":121,"max":[4],"min":[0],"type":"SCALAR"},{"bufferView":4,"byteOffset":19188,"componentType":5126,"count":121,"max":[49.52496337890625,495.8333435058594,49.799278259277344],"min":[-43.25252151489258,0,0],"type":"VEC3"},{"bufferView":3,"byteOffset":6984,"componentType":5126,"count":2,"max":[4],"min":[0],"type":"SCALAR"},{"bufferView":4,"byteOffset":20640,"componentType":5126,"count":2,"max":[1,1,1],"min":[1,1,1],"type":"VEC3"},{"bufferView":3,"byteOffset":6992,"componentType":5126,"count":2,"max":[4],"min":[0],"type":"SCALAR"},{"bufferView":5,"byteOffset":416,"componentType":5126,"count":2,"max":[0,0,0,1],"min":[0,0,0,1],"type":"VEC4"},{"bufferView":3,"byteOffset":7000,"componentType":5126,"count":121,"max":[4],"min":[0],"type":"SCALAR"},{"bufferView":4,"byteOffset":20664,"componentType":5126,"count":121,"max":[49.52496337890625,495.8333435058594,49.79928207397461],"min":[-43.25252151489258,0,0],"type":"VEC3"},{"bufferView":3,"byteOffset":7484,"componentType":5126,"count":2,"max":[4],"min":[0],"type":"SCALAR"},{"bufferView":4,"byteOffset":22116,"componentType":5126,"count":2,"max":[1,1,1],"min":[1,1,1],"type":"VEC3"},{"bufferView":3,"byteOffset":7492,"componentType":5126,"count":2,"max":[4],"min":[0],"type":"SCALAR"},{"bufferView":5,"byteOffset":448,"componentType":5126,"count":2,"max":[0,0,0,1],"min":[0,0,0,1],"type":"VEC4"},{"bufferView":3,"byteOffset":7500,"componentType":5126,"count":121,"max":[4],"min":[0],"type":"SCALAR"},{"bufferView":4,"byteOffset":22140,"componentType":5126,"count":121,"max":[49.52496337890625,495.8333435058594,49.79928207397461],"min":[-43.25252151489258,0,0],"type":"VEC3"},{"bufferView":3,"byteOffset":7984,"componentType":5126,"count":2,"max":[4],"min":[0],"type":"SCALAR"},{"bufferView":4,"byteOffset":23592,"componentType":5126,"count":2,"max":[1,1,1],"min":[1,1,1],"type":"VEC3"},{"bufferView":3,"byteOffset":7992,"componentType":5126,"count":2,"max":[4],"min":[0],"type":"SCALAR"},{"bufferView":5,"byteOffset":480,"componentType":5126,"count":2,"max":[0,0,0,1],"min":[0,0,0,1],"type":"VEC4"},{"bufferView":3,"byteOffset":8000,"componentType":5126,"count":121,"max":[4],"min":[0],"type":"SCALAR"},{"bufferView":4,"byteOffset":23616,"componentType":5126,"count":121,"max":[49.52496337890625,495.8333435058594,49.79928207397461],"min":[-43.25252151489258,0,0],"type":"VEC3"},{"bufferView":3,"byteOffset":8484,"componentType":5126,"count":2,"max":[4],"min":[0],"type":"SCALAR"},{"bufferView":4,"byteOffset":25068,"componentType":5126,"count":2,"max":[1,1,1],"min":[1,1,1],"type":"VEC3"},{"bufferView":3,"byteOffset":8492,"componentType":5126,"count":2,"max":[4],"min":[0],"type":"SCALAR"},{"bufferView":5,"byteOffset":512,"componentType":5126,"count":2,"max":[0,0,0,1],"min":[0,0,0,1],"type":"VEC4"},{"bufferView":3,"byteOffset":8500,"componentType":5126,"count":121,"max":[4],"min":[0],"type":"SCALAR"},{"bufferView":4,"byteOffset":25092,"componentType":5126,"count":121,"max":[49.52496337890625,495.8333435058594,49.79928207397461],"min":[-43.25252151489258,0,0],"type":"VEC3"},{"bufferView":3,"byteOffset":8984,"componentType":5126,"count":2,"max":[4],"min":[0],"type":"SCALAR"},{"bufferView":4,"byteOffset":26544,"componentType":5126,"count":2,"max":[1,1,1],"min":[1,1,1],"type":"VEC3"},{"bufferView":3,"byteOffset":8992,"componentType":5126,"count":2,"max":[4],"min":[0],"type":"SCALAR"},{"bufferView":5,"byteOffset":544,"componentType":5126,"count":2,"max":[0,0,0,1],"min":[0,0,0,1],"type":"VEC4"},{"bufferView":3,"byteOffset":9000,"componentType":5126,"count":121,"max":[4],"min":[0],"type":"SCALAR"},{"bufferView":4,"byteOffset":26568,"componentType":5126,"count":121,"max":[49.52496337890625,500,49.79928207397461],"min":[-43.25252151489258,4.166666507720947,0],"type":"VEC3"},{"bufferView":3,"byteOffset":9484,"componentType":5126,"count":2,"max":[4],"min":[0],"type":"SCALAR"},{"bufferView":4,"byteOffset":28020,"componentType":5126,"count":2,"max":[1,1,1],"min":[1,1,1],"type":"VEC3"},{"bufferView":3,"byteOffset":9492,"componentType":5126,"count":2,"max":[4],"min":[0],"type":"SCALAR"},{"bufferView":5,"byteOffset":576,"componentType":5126,"count":2,"max":[0,0,0,1],"min":[0,0,0,1],"type":"VEC4"},{"bufferView":3,"byteOffset":9500,"componentType":5126,"count":121,"max":[4],"min":[0],"type":"SCALAR"},{"bufferView":4,"byteOffset":28044,"componentType":5126,"count":121,"max":[49.52496337890625,495.8333435058594,49.79928207397461],"min":[-43.25252151489258,0,0],"type":"VEC3"},{"bufferView":3,"byteOffset":9984,"componentType":5126,"count":2,"max":[4],"min":[0],"type":"SCALAR"},{"bufferView":4,"byteOffset":29496,"componentType":5126,"count":2,"max":[1,1,1],"min":[1,1,1],"type":"VEC3"},{"bufferView":3,"byteOffset":9992,"componentType":5126,"count":2,"max":[4],"min":[0],"type":"SCALAR"},{"bufferView":5,"byteOffset":608,"componentType":5126,"count":2,"max":[0,0,0,1],"min":[0,0,0,1],"type":"VEC4"},{"bufferView":3,"byteOffset":10000,"componentType":5126,"count":121,"max":[4],"min":[0],"type":"SCALAR"},{"bufferView":4,"byteOffset":29520,"componentType":5126,"count":121,"max":[49.52496337890625,495.8333435058594,49.79928207397461],"min":[-43.25252151489258,0,0],"type":"VEC3"},{"bufferView":3,"byteOffset":10484,"componentType":5126,"count":2,"max":[4],"min":[0],"type":"SCALAR"},{"bufferView":4,"byteOffset":30972,"componentType":5126,"count":2,"max":[1,1,1],"min":[1,1,1],"type":"VEC3"},{"bufferView":3,"byteOffset":10492,"componentType":5126,"count":2,"max":[4],"min":[0],"type":"SCALAR"},{"bufferView":5,"byteOffset":640,"componentType":5126,"count":2,"max":[0,0,0,1],"min":[0,0,0,1],"type":"VEC4"},{"bufferView":3,"byteOffset":10500,"componentType":5126,"count":121,"max":[4],"min":[0],"type":"SCALAR"},{"bufferView":4,"byteOffset":30996,"componentType":5126,"count":121,"max":[49.52496337890625,500,49.79928207397461],"min":[-43.25252151489258,4.166666507720947,0],"type":"VEC3"},{"bufferView":3,"byteOffset":10984,"componentType":5126,"count":2,"max":[4],"min":[0],"type":"SCALAR"},{"bufferView":4,"byteOffset":32448,"componentType":5126,"count":2,"max":[1,1,1],"min":[1,1,1],"type":"VEC3"},{"bufferView":3,"byteOffset":10992,"componentType":5126,"count":2,"max":[4],"min":[0],"type":"SCALAR"},{"bufferView":5,"byteOffset":672,"componentType":5126,"count":2,"max":[0,0,0,1],"min":[0,0,0,1],"type":"VEC4"},{"bufferView":3,"byteOffset":11000,"componentType":5126,"count":121,"max":[4],"min":[0],"type":"SCALAR"},{"bufferView":4,"byteOffset":32472,"componentType":5126,"count":121,"max":[49.52496337890625,495.8333435058594,49.79928207397461],"min":[-43.25252151489258,0,0],"type":"VEC3"},{"bufferView":3,"byteOffset":11484,"componentType":5126,"count":2,"max":[4],"min":[0],"type":"SCALAR"},{"bufferView":4,"byteOffset":33924,"componentType":5126,"count":2,"max":[1,1,1],"min":[1,1,1],"type":"VEC3"},{"bufferView":3,"byteOffset":11492,"componentType":5126,"count":2,"max":[4],"min":[0],"type":"SCALAR"},{"bufferView":5,"byteOffset":704,"componentType":5126,"count":2,"max":[0,0,0,1],"min":[0,0,0,1],"type":"VEC4"},{"bufferView":3,"byteOffset":11500,"componentType":5126,"count":121,"max":[4],"min":[0],"type":"SCALAR"},{"bufferView":4,"byteOffset":33948,"componentType":5126,"count":121,"max":[49.52496337890625,495.8333435058594,49.79928207397461],"min":[-43.25252151489258,0,0],"type":"VEC3"},{"bufferView":3,"byteOffset":11984,"componentType":5126,"count":2,"max":[4],"min":[0],"type":"SCALAR"},{"bufferView":4,"byteOffset":35400,"componentType":5126,"count":2,"max":[1,1,1],"min":[1,1,1],"type":"VEC3"},{"bufferView":3,"byteOffset":11992,"componentType":5126,"count":2,"max":[4],"min":[0],"type":"SCALAR"},{"bufferView":5,"byteOffset":736,"componentType":5126,"count":2,"max":[0,0,0,1],"min":[0,0,0,1],"type":"VEC4"},{"bufferView":3,"byteOffset":12000,"componentType":5126,"count":121,"max":[4],"min":[0],"type":"SCALAR"},{"bufferView":4,"byteOffset":35424,"componentType":5126,"count":121,"max":[49.52496337890625,495.8333435058594,49.79928207397461],"min":[-43.25252151489258,0,0],"type":"VEC3"},{"bufferView":3,"byteOffset":12484,"componentType":5126,"count":2,"max":[4],"min":[0],"type":"SCALAR"},{"bufferView":4,"byteOffset":36876,"componentType":5126,"count":2,"max":[1,1,1],"min":[1,1,1],"type":"VEC3"},{"bufferView":3,"byteOffset":12492,"componentType":5126,"count":2,"max":[4],"min":[0],"type":"SCALAR"},{"bufferView":5,"byteOffset":768,"componentType":5126,"count":2,"max":[0,0,0,1],"min":[0,0,0,1],"type":"VEC4"},{"bufferView":3,"byteOffset":12500,"componentType":5126,"count":121,"max":[4],"min":[0],"type":"SCALAR"},{"bufferView":4,"byteOffset":36900,"componentType":5126,"count":121,"max":[49.52496337890625,500,49.79928207397461],"min":[-43.25252151489258,4.166666507720947,0],"type":"VEC3"},{"bufferView":3,"byteOffset":12984,"componentType":5126,"count":2,"max":[4],"min":[0],"type":"SCALAR"},{"bufferView":4,"byteOffset":38352,"componentType":5126,"count":2,"max":[1,1,1],"min":[1,1,1],"type":"VEC3"},{"bufferView":3,"byteOffset":12992,"componentType":5126,"count":2,"max":[4],"min":[0],"type":"SCALAR"},{"bufferView":5,"byteOffset":800,"componentType":5126,"count":2,"max":[0,0,0,1],"min":[0,0,0,1],"type":"VEC4"},{"bufferView":3,"byteOffset":13000,"componentType":5126,"count":121,"max":[4],"min":[0],"type":"SCALAR"},{"bufferView":4,"byteOffset":38376,"componentType":5126,"count":121,"max":[49.52496337890625,495.8333435058594,49.79928207397461],"min":[-43.25252151489258,0,0],"type":"VEC3"},{"bufferView":3,"byteOffset":13484,"componentType":5126,"count":2,"max":[4],"min":[0],"type":"SCALAR"},{"bufferView":4,"byteOffset":39828,"componentType":5126,"count":2,"max":[1,1,1],"min":[1,1,1],"type":"VEC3"},{"bufferView":3,"byteOffset":13492,"componentType":5126,"count":2,"max":[4],"min":[0],"type":"SCALAR"},{"bufferView":5,"byteOffset":832,"componentType":5126,"count":2,"max":[0,0,0,1],"min":[0,0,0,1],"type":"VEC4"},{"bufferView":3,"byteOffset":13500,"componentType":5126,"count":121,"max":[4],"min":[0],"type":"SCALAR"},{"bufferView":4,"byteOffset":39852,"componentType":5126,"count":121,"max":[49.52496337890625,500,49.79928207397461],"min":[-43.25252151489258,4.166666507720947,0],"type":"VEC3"},{"bufferView":3,"byteOffset":13984,"componentType":5126,"count":2,"max":[4],"min":[0],"type":"SCALAR"},{"bufferView":4,"byteOffset":41304,"componentType":5126,"count":2,"max":[1,1,1],"min":[1,1,1],"type":"VEC3"},{"bufferView":3,"byteOffset":13992,"componentType":5126,"count":2,"max":[4],"min":[0],"type":"SCALAR"},{"bufferView":5,"byteOffset":864,"componentType":5126,"count":2,"max":[0,0,0,1],"min":[0,0,0,1],"type":"VEC4"},{"bufferView":3,"byteOffset":14000,"componentType":5126,"count":121,"max":[4],"min":[0],"type":"SCALAR"},{"bufferView":4,"byteOffset":41328,"componentType":5126,"count":121,"max":[49.52496337890625,495.8333435058594,49.79928207397461],"min":[-43.25252151489258,0,0],"type":"VEC3"},{"bufferView":3,"byteOffset":14484,"componentType":5126,"count":2,"max":[4],"min":[0],"type":"SCALAR"},{"bufferView":4,"byteOffset":42780,"componentType":5126,"count":2,"max":[1,1,1],"min":[1,1,1],"type":"VEC3"},{"bufferView":3,"byteOffset":14492,"componentType":5126,"count":2,"max":[4],"min":[0],"type":"SCALAR"},{"bufferView":5,"byteOffset":896,"componentType":5126,"count":2,"max":[0,0,0,1],"min":[0,0,0,1],"type":"VEC4"},{"bufferView":3,"byteOffset":14500,"componentType":5126,"count":121,"max":[4],"min":[0],"type":"SCALAR"},{"bufferView":4,"byteOffset":42804,"componentType":5126,"count":121,"max":[49.52496337890625,500,49.79928207397461],"min":[-43.25252151489258,4.166666507720947,0],"type":"VEC3"},{"bufferView":3,"byteOffset":14984,"componentType":5126,"count":2,"max":[4],"min":[0],"type":"SCALAR"},{"bufferView":4,"byteOffset":44256,"componentType":5126,"count":2,"max":[1,1,1],"min":[1,1,1],"type":"VEC3"},{"bufferView":3,"byteOffset":14992,"componentType":5126,"count":2,"max":[4],"min":[0],"type":"SCALAR"},{"bufferView":5,"byteOffset":928,"componentType":5126,"count":2,"max":[0,0,0,1],"min":[0,0,0,1],"type":"VEC4"}],"animations":[{"channels":[{"sampler":0,"target":{"node":60,"path":"translation"}},{"sampler":1,"target":{"node":60,"path":"scale"}},{"sampler":2,"target":{"node":60,"path":"rotation"}},{"sampler":3,"target":{"node":62,"path":"translation"}},{"sampler":4,"target":{"node":62,"path":"scale"}},{"sampler":5,"target":{"node":62,"path":"rotation"}},{"sampler":6,"target":{"node":64,"path":"translation"}},{"sampler":7,"target":{"node":64,"path":"scale"}},{"sampler":8,"target":{"node":64,"path":"rotation"}},{"sampler":9,"target":{"node":66,"path":"translation"}},{"sampler":10,"target":{"node":66,"path":"scale"}},{"sampler":11,"target":{"node":66,"path":"rotation"}},{"sampler":12,"target":{"node":68,"path":"translation"}},{"sampler":13,"target":{"node":68,"path":"scale"}},{"sampler":14,"target":{"node":68,"path":"rotation"}},{"sampler":15,"target":{"node":70,"path":"translation"}},{"sampler":16,"target":{"node":70,"path":"scale"}},{"sampler":17,"target":{"node":70,"path":"rotation"}},{"sampler":18,"target":{"node":72,"path":"translation"}},{"sampler":19,"target":{"node":72,"path":"scale"}},{"sampler":20,"target":{"node":72,"path":"rotation"}},{"sampler":21,"target":{"node":74,"path":"translation"}},{"sampler":22,"target":{"node":74,"path":"scale"}},{"sampler":23,"target":{"node":74,"path":"rotation"}},{"sampler":24,"target":{"node":76,"path":"translation"}},{"sampler":25,"target":{"node":76,"path":"scale"}},{"sampler":26,"target":{"node":76,"path":"rotation"}},{"sampler":27,"target":{"node":78,"path":"translation"}},{"sampler":28,"target":{"node":78,"path":"scale"}},{"sampler":29,"target":{"node":78,"path":"rotation"}},{"sampler":30,"target":{"node":80,"path":"translation"}},{"sampler":31,"target":{"node":80,"path":"scale"}},{"sampler":32,"target":{"node":80,"path":"rotation"}},{"sampler":33,"target":{"node":82,"path":"translation"}},{"sampler":34,"target":{"node":82,"path":"scale"}},{"sampler":35,"target":{"node":82,"path":"rotation"}},{"sampler":36,"target":{"node":84,"path":"translation"}},{"sampler":37,"target":{"node":84,"path":"scale"}},{"sampler":38,"target":{"node":84,"path":"rotation"}},{"sampler":39,"target":{"node":86,"path":"translation"}},{"sampler":40,"target":{"node":86,"path":"scale"}},{"sampler":41,"target":{"node":86,"path":"rotation"}},{"sampler":42,"target":{"node":88,"path":"translation"}},{"sampler":43,"target":{"node":88,"path":"scale"}},{"sampler":44,"target":{"node":88,"path":"rotation"}},{"sampler":45,"target":{"node":90,"path":"translation"}},{"sampler":46,"target":{"node":90,"path":"scale"}},{"sampler":47,"target":{"node":90,"path":"rotation"}},{"sampler":48,"target":{"node":92,"path":"translation"}},{"sampler":49,"target":{"node":92,"path":"scale"}},{"sampler":50,"target":{"node":92,"path":"rotation"}},{"sampler":51,"target":{"node":94,"path":"translation"}},{"sampler":52,"target":{"node":94,"path":"scale"}},{"sampler":53,"target":{"node":94,"path":"rotation"}},{"sampler":54,"target":{"node":96,"path":"translation"}},{"sampler":55,"target":{"node":96,"path":"scale"}},{"sampler":56,"target":{"node":96,"path":"rotation"}},{"sampler":57,"target":{"node":98,"path":"translation"}},{"sampler":58,"target":{"node":98,"path":"scale"}},{"sampler":59,"target":{"node":98,"path":"rotation"}},{"sampler":60,"target":{"node":100,"path":"translation"}},{"sampler":61,"target":{"node":100,"path":"scale"}},{"sampler":62,"target":{"node":100,"path":"rotation"}},{"sampler":63,"target":{"node":102,"path":"translation"}},{"sampler":64,"target":{"node":102,"path":"scale"}},{"sampler":65,"target":{"node":102,"path":"rotation"}},{"sampler":66,"target":{"node":104,"path":"translation"}},{"sampler":67,"target":{"node":104,"path":"scale"}},{"sampler":68,"target":{"node":104,"path":"rotation"}},{"sampler":69,"target":{"node":106,"path":"translation"}},{"sampler":70,"target":{"node":106,"path":"scale"}},{"sampler":71,"target":{"node":106,"path":"rotation"}},{"sampler":72,"target":{"node":108,"path":"translation"}},{"sampler":73,"target":{"node":108,"path":"scale"}},{"sampler":74,"target":{"node":108,"path":"rotation"}},{"sampler":75,"target":{"node":110,"path":"translation"}},{"sampler":76,"target":{"node":110,"path":"scale"}},{"sampler":77,"target":{"node":110,"path":"rotation"}},{"sampler":78,"target":{"node":112,"path":"translation"}},{"sampler":79,"target":{"node":112,"path":"scale"}},{"sampler":80,"target":{"node":112,"path":"rotation"}},{"sampler":81,"target":{"node":114,"path":"translation"}},{"sampler":82,"target":{"node":114,"path":"scale"}},{"sampler":83,"target":{"node":114,"path":"rotation"}},{"sampler":84,"target":{"node":116,"path":"translation"}},{"sampler":85,"target":{"node":116,"path":"scale"}},{"sampler":86,"target":{"node":116,"path":"rotation"}},{"sampler":87,"target":{"node":118,"path":"translation"}},{"sampler":88,"target":{"node":118,"path":"scale"}},{"sampler":89,"target":{"node":118,"path":"rotation"}}],"name":"Take 001","samplers":[{"input":212,"interpolation":"LINEAR","output":213},{"input":214,"interpolation":"LINEAR","output":215},{"input":216,"interpolation":"LINEAR","output":217},{"input":218,"interpolation":"LINEAR","output":219},{"input":220,"interpolation":"LINEAR","output":221},{"input":222,"interpolation":"LINEAR","output":223},{"input":224,"interpolation":"LINEAR","output":225},{"input":226,"interpolation":"LINEAR","output":227},{"input":228,"interpolation":"LINEAR","output":229},{"input":230,"interpolation":"LINEAR","output":231},{"input":232,"interpolation":"LINEAR","output":233},{"input":234,"interpolation":"LINEAR","output":235},{"input":236,"interpolation":"LINEAR","output":237},{"input":238,"interpolation":"LINEAR","output":239},{"input":240,"interpolation":"LINEAR","output":241},{"input":242,"interpolation":"LINEAR","output":243},{"input":244,"interpolation":"LINEAR","output":245},{"input":246,"interpolation":"LINEAR","output":247},{"input":248,"interpolation":"LINEAR","output":249},{"input":250,"interpolation":"LINEAR","output":251},{"input":252,"interpolation":"LINEAR","output":253},{"input":254,"interpolation":"LINEAR","output":255},{"input":256,"interpolation":"LINEAR","output":257},{"input":258,"interpolation":"LINEAR","output":259},{"input":260,"interpolation":"LINEAR","output":261},{"input":262,"interpolation":"LINEAR","output":263},{"input":264,"interpolation":"LINEAR","output":265},{"input":266,"interpolation":"LINEAR","output":267},{"input":268,"interpolation":"LINEAR","output":269},{"input":270,"interpolation":"LINEAR","output":271},{"input":272,"interpolation":"LINEAR","output":273},{"input":274,"interpolation":"LINEAR","output":275},{"input":276,"interpolation":"LINEAR","output":277},{"input":278,"interpolation":"LINEAR","output":279},{"input":280,"interpolation":"LINEAR","output":281},{"input":282,"interpolation":"LINEAR","output":283},{"input":284,"interpolation":"LINEAR","output":285},{"input":286,"interpolation":"LINEAR","output":287},{"input":288,"interpolation":"LINEAR","output":289},{"input":290,"interpolation":"LINEAR","output":291},{"input":292,"interpolation":"LINEAR","output":293},{"input":294,"interpolation":"LINEAR","output":295},{"input":296,"interpolation":"LINEAR","output":297},{"input":298,"interpolation":"LINEAR","output":299},{"input":300,"interpolation":"LINEAR","output":301},{"input":302,"interpolation":"LINEAR","output":303},{"input":304,"interpolation":"LINEAR","output":305},{"input":306,"interpolation":"LINEAR","output":307},{"input":308,"interpolation":"LINEAR","output":309},{"input":310,"interpolation":"LINEAR","output":311},{"input":312,"interpolation":"LINEAR","output":313},{"input":314,"interpolation":"LINEAR","output":315},{"input":316,"interpolation":"LINEAR","output":317},{"input":318,"interpolation":"LINEAR","output":319},{"input":320,"interpolation":"LINEAR","output":321},{"input":322,"interpolation":"LINEAR","output":323},{"input":324,"interpolation":"LINEAR","output":325},{"input":326,"interpolation":"LINEAR","output":327},{"input":328,"interpolation":"LINEAR","output":329},{"input":330,"interpolation":"LINEAR","output":331},{"input":332,"interpolation":"LINEAR","output":333},{"input":334,"interpolation":"LINEAR","output":335},{"input":336,"interpolation":"LINEAR","output":337},{"input":338,"interpolation":"LINEAR","output":339},{"input":340,"interpolation":"LINEAR","output":341},{"input":342,"interpolation":"LINEAR","output":343},{"input":344,"interpolation":"LINEAR","output":345},{"input":346,"interpolation":"LINEAR","output":347},{"input":348,"interpolation":"LINEAR","output":349},{"input":350,"interpolation":"LINEAR","output":351},{"input":352,"interpolation":"LINEAR","output":353},{"input":354,"interpolation":"LINEAR","output":355},{"input":356,"interpolation":"LINEAR","output":357},{"input":358,"interpolation":"LINEAR","output":359},{"input":360,"interpolation":"LINEAR","output":361},{"input":362,"interpolation":"LINEAR","output":363},{"input":364,"interpolation":"LINEAR","output":365},{"input":366,"interpolation":"LINEAR","output":367},{"input":368,"interpolation":"LINEAR","output":369},{"input":370,"interpolation":"LINEAR","output":371},{"input":372,"interpolation":"LINEAR","output":373},{"input":374,"interpolation":"LINEAR","output":375},{"input":376,"interpolation":"LINEAR","output":377},{"input":378,"interpolation":"LINEAR","output":379},{"input":380,"interpolation":"LINEAR","output":381},{"input":382,"interpolation":"LINEAR","output":383},{"input":384,"interpolation":"LINEAR","output":385},{"input":386,"interpolation":"LINEAR","output":387},{"input":388,"interpolation":"LINEAR","output":389},{"input":390,"interpolation":"LINEAR","output":391}]}],"asset":{"extras":{"author":"nicoplv (https://sketchfab.com/nicoplv)","license":"CC-BY-NC-4.0 (http://creativecommons.org/licenses/by-nc/4.0/)","source":"https://sketchfab.com/3d-models/merry-christmas-d9d8c3b7e07d4b77abde1ae7dee003ba","title":"Merry Christmas"},"generator":"Sketchfab-12.67.0","version":"2.0"},"bufferViews":[{"buffer":0,"byteLength":143424,"name":"floatBufferViews","target":34963},{"buffer":0,"byteLength":85464,"byteOffset":143424,"byteStride":8,"name":"floatBufferViews","target":34962},{"buffer":0,"byteLength":256392,"byteOffset":228888,"byteStride":12,"name":"floatBufferViews","target":34962},{"buffer":0,"byteLength":15000,"byteOffset":485280,"name":"floatBufferViews"},{"buffer":0,"byteLength":44280,"byteOffset":500280,"byteStride":12,"name":"floatBufferViews"},{"buffer":0,"byteLength":960,"byteOffset":544560,"byteStride":16,"name":"floatBufferViews"}],"buffers":[{"byteLength":545520,"uri":"data:application/octet-stream;base64,"}],"materials":[{"doubleSided":true,"name":"Caillou_Material","pbrMetallicRoughness":{"baseColorFactor":[0.024157632448504756,0.021219010376003555,0.017641954488384078,1],"metallicFactor":0.09,"roughnessFactor":0.42000000000000004}},{"doubleSided":true,"name":"Carotte_Material","pbrMetallicRoughness":{"baseColorFactor":[0.7835377915261931,0.24228112246555486,0.004391442037410296,1],"metallicFactor":0,"roughnessFactor":0.6599999999999999}},{"doubleSided":true,"name":"Neige_Material","pbrMetallicRoughness":{"baseColorFactor":[0.6724431569576873,0.7379104087727306,0.9215818562772946,1],"metallicFactor":0,"roughnessFactor":0.30999999999999994}},{"doubleSided":true,"name":"ChapeauBandeau_Material","pbrMetallicRoughness":{"baseColorFactor":[0.7835377915261933,0.012983032342173007,0,1],"metallicFactor":0,"roughnessFactor":0.77}},{"doubleSided":true,"name":"Chapeau_Material","pbrMetallicRoughness":{"baseColorFactor":[0.006048833022857052,0.006048833022857052,0.008023192985384994,1],"metallicFactor":0.1,"roughnessFactor":0.38}},{"doubleSided":true,"name":"Branche_Material","pbrMetallicRoughness":{"baseColorFactor":[0.1651321945016676,0.08650046203654974,0.024157632448504756,1],"metallicFactor":0,"roughnessFactor":0.89}},{"doubleSided":true,"name":"Socle_Material","pbrMetallicRoughness":{"baseColorFactor":[0.0295568344378088,0.07227185068231748,0.01850022012837969,1],"metallicFactor":0,"roughnessFactor":0.92}},{"doubleSided":true,"name":"SapinEpine_Material","pbrMetallicRoughness":{"baseColorFactor":[0.017641954488384074,0.10702310297826755,0.01444384359609255,1],"metallicFactor":0,"roughnessFactor":0.81}},{"doubleSided":true,"name":"Tronc_Material","pbrMetallicRoughness":{"baseColorFactor":[0.0295568344378088,0.015996293365509624,0.004391442037410293,1],"metallicFactor":0,"roughnessFactor":0.77}},{"doubleSided":true,"name":"CadeauBande_Material","pbrMetallicRoughness":{"baseColorFactor":[0.6444796819705821,0.03189603307301153,0.022173884793387368,1],"metallicFactor":0.03,"roughnessFactor":0.8}},{"doubleSided":true,"name":"CadeauPaquet_Material","pbrMetallicRoughness":{"baseColorFactor":[0.6724431569576873,0.3864294337870487,0.03820437159534645,1],"metallicFactor":0.22,"roughnessFactor":0.54}}],"meshes":[{"name":"OeilGauche_Caillou_Material_0","primitives":[{"attributes":{"NORMAL":1,"POSITION":0,"TEXCOORD_0":2},"indices":3,"material":0,"mode":4}]},{"name":"OeilDroit_Caillou_Material_0","primitives":[{"attributes":{"NORMAL":5,"POSITION":4,"TEXCOORD_0":6},"indices":7,"material":0,"mode":4}]},{"name":"Carotte_Carotte_Material_0","primitives":[{"attributes":{"NORMAL":9,"POSITION":8,"TEXCOORD_0":10},"indices":11,"material":1,"mode":4}]},{"name":"BouleHaute_Neige_Material_0","primitives":[{"attributes":{"NORMAL":13,"POSITION":12,"TEXCOORD_0":14},"indices":15,"material":2,"mode":4}]},{"name":"ChapeauBandeau_ChapeauBandeau_Material_0","primitives":[{"attributes":{"NORMAL":17,"POSITION":16,"TEXCOORD_0":18},"indices":19,"material":3,"mode":4}]},{"name":"ChapeauCorps_Chapeau_Material_0","primitives":[{"attributes":{"NORMAL":21,"POSITION":20,"TEXCOORD_0":22},"indices":23,"material":4,"mode":4}]},{"name":"BoutonHaut_Caillou_Material_0","primitives":[{"attributes":{"NORMAL":25,"POSITION":24,"TEXCOORD_0":26},"indices":27,"material":0,"mode":4}]},{"name":"BouleBasse_Neige_Material_0","primitives":[{"attributes":{"NORMAL":29,"POSITION":28,"TEXCOORD_0":30},"indices":31,"material":2,"mode":4}]},{"name":"BoutonMilieu_Caillou_Material_0","primitives":[{"attributes":{"NORMAL":33,"POSITION":32,"TEXCOORD_0":34},"indices":35,"material":0,"mode":4}]},{"name":"BoutonBas_Caillou_Material_0","primitives":[{"attributes":{"NORMAL":37,"POSITION":36,"TEXCOORD_0":38},"indices":39,"material":0,"mode":4}]},{"name":"BrasGauche_Branche_Material_0","primitives":[{"attributes":{"NORMAL":41,"POSITION":40,"TEXCOORD_0":42},"indices":43,"material":5,"mode":4}]},{"name":"BrasDroit_Branche_Material_0","primitives":[{"attributes":{"NORMAL":45,"POSITION":44,"TEXCOORD_0":46},"indices":47,"material":5,"mode":4}]},{"name":"PlateauNeige_Neige_Material_0","primitives":[{"attributes":{"NORMAL":49,"POSITION":48,"TEXCOORD_0":50},"indices":51,"material":2,"mode":4}]},{"name":"Plateau_Socle_Material_0","primitives":[{"attributes":{"NORMAL":53,"POSITION":52,"TEXCOORD_0":54},"indices":55,"material":6,"mode":4}]},{"name":"BrancheHauteNeige_Neige_Material_0","primitives":[{"attributes":{"NORMAL":57,"POSITION":56,"TEXCOORD_0":58},"indices":59,"material":2,"mode":4}]},{"name":"BrancheHaute_SapinEpine_Material_0","primitives":[{"attributes":{"NORMAL":61,"POSITION":60,"TEXCOORD_0":62},"indices":63,"material":7,"mode":4}]},{"name":"BrancheBasseNeige_Neige_Material_0","primitives":[{"attributes":{"NORMAL":65,"POSITION":64,"TEXCOORD_0":66},"indices":67,"material":2,"mode":4}]},{"name":"BrancheBasse_SapinEpine_Material_0","primitives":[{"attributes":{"NORMAL":69,"POSITION":68,"TEXCOORD_0":70},"indices":71,"material":7,"mode":4}]},{"name":"Tronc_Tronc_Material_0","primitives":[{"attributes":{"NORMAL":73,"POSITION":72,"TEXCOORD_0":74},"indices":75,"material":8,"mode":4}]},{"name":"CadeauBande_CadeauBande_Material_0","primitives":[{"attributes":{"NORMAL":77,"POSITION":76,"TEXCOORD_0":78},"indices":79,"material":9,"mode":4}]},{"name":"CadeauPaquet_CadeauPaquet_Material_0","primitives":[{"attributes":{"NORMAL":81,"POSITION":80,"TEXCOORD_0":82},"indices":83,"material":10,"mode":4}]},{"name":"CadeauBande_CadeauBande_Material_0","primitives":[{"attributes":{"NORMAL":85,"POSITION":84,"TEXCOORD_0":86},"indices":87,"material":9,"mode":4}]},{"name":"CadeauPaquet_CadeauPaquet_Material_0","primitives":[{"attributes":{"NORMAL":89,"POSITION":88,"TEXCOORD_0":90},"indices":91,"material":10,"mode":4}]},{"name":"Neige_1_Neige_Material_0","primitives":[{"attributes":{"NORMAL":93,"POSITION":92,"TEXCOORD_0":94},"indices":95,"material":2,"mode":4}]},{"name":"Neige_2_Neige_Material_0","primitives":[{"attributes":{"NORMAL":97,"POSITION":96,"TEXCOORD_0":98},"indices":99,"material":2,"mode":4}]},{"name":"Neige_3_Neige_Material_0","primitives":[{"attributes":{"NORMAL":101,"POSITION":100,"TEXCOORD_0":102},"indices":103,"material":2,"mode":4}]},{"name":"Neige_4_Neige_Material_0","primitives":[{"attributes":{"NORMAL":105,"POSITION":104,"TEXCOORD_0":106},"indices":107,"material":2,"mode":4}]},{"name":"Neige_5_Neige_Material_0","primitives":[{"attributes":{"NORMAL":109,"POSITION":108,"TEXCOORD_0":110},"indices":111,"material":2,"mode":4}]},{"name":"Neige_6_Neige_Material_0","primitives":[{"attributes":{"NORMAL":113,"POSITION":112,"TEXCOORD_0":114},"indices":115,"material":2,"mode":4}]},{"name":"Neige_7_Neige_Material_0","primitives":[{"attributes":{"NORMAL":117,"POSITION":116,"TEXCOORD_0":118},"indices":119,"material":2,"mode":4}]},{"name":"Neige_8_Neige_Material_0","primitives":[{"attributes":{"NORMAL":121,"POSITION":120,"TEXCOORD_0":122},"indices":123,"material":2,"mode":4}]},{"name":"Neige_9_Neige_Material_0","primitives":[{"attributes":{"NORMAL":125,"POSITION":124,"TEXCOORD_0":126},"indices":127,"material":2,"mode":4}]},{"name":"Neige_10_Neige_Material_0","primitives":[{"attributes":{"NORMAL":129,"POSITION":128,"TEXCOORD_0":130},"indices":131,"material":2,"mode":4}]},{"name":"Neige_11_Neige_Material_0","primitives":[{"attributes":{"NORMAL":133,"POSITION":132,"TEXCOORD_0":134},"indices":135,"material":2,"mode":4}]},{"name":"Neige_12_Neige_Material_0","primitives":[{"attributes":{"NORMAL":137,"POSITION":136,"TEXCOORD_0":138},"indices":139,"material":2,"mode":4}]},{"name":"Neige_13_Neige_Material_0","primitives":[{"attributes":{"NORMAL":141,"POSITION":140,"TEXCOORD_0":142},"indices":143,"material":2,"mode":4}]},{"name":"Neige_14_Neige_Material_0","primitives":[{"attributes":{"NORMAL":145,"POSITION":144,"TEXCOORD_0":146},"indices":147,"material":2,"mode":4}]},{"name":"Neige_15_Neige_Material_0","primitives":[{"attributes":{"NORMAL":149,"POSITION":148,"TEXCOORD_0":150},"indices":151,"material":2,"mode":4}]},{"name":"Neige_16_Neige_Material_0","primitives":[{"attributes":{"NORMAL":153,"POSITION":152,"TEXCOORD_0":154},"indices":155,"material":2,"mode":4}]},{"name":"Neige_17_Neige_Material_0","primitives":[{"attributes":{"NORMAL":157,"POSITION":156,"TEXCOORD_0":158},"indices":159,"material":2,"mode":4}]},{"name":"Neige_18_Neige_Material_0","primitives":[{"attributes":{"NORMAL":161,"POSITION":160,"TEXCOORD_0":162},"indices":163,"material":2,"mode":4}]},{"name":"Neige_19_Neige_Material_0","primitives":[{"attributes":{"NORMAL":165,"POSITION":164,"TEXCOORD_0":166},"indices":167,"material":2,"mode":4}]},{"name":"Neige_20_Neige_Material_0","primitives":[{"attributes":{"NORMAL":169,"POSITION":168,"TEXCOORD_0":170},"indices":171,"material":2,"mode":4}]},{"name":"Neige_21_Neige_Material_0","primitives":[{"attributes":{"NORMAL":173,"POSITION":172,"TEXCOORD_0":174},"indices":175,"material":2,"mode":4}]},{"name":"Neige_22_Neige_Material_0","primitives":[{"attributes":{"NORMAL":177,"POSITION":176,"TEXCOORD_0":178},"indices":179,"material":2,"mode":4}]},{"name":"Neige_23_Neige_Material_0","primitives":[{"attributes":{"NORMAL":181,"POSITION":180,"TEXCOORD_0":182},"indices":183,"material":2,"mode":4}]},{"name":"Neige_24_Neige_Material_0","primitives":[{"attributes":{"NORMAL":185,"POSITION":184,"TEXCOORD_0":186},"indices":187,"material":2,"mode":4}]},{"name":"Neige_25_Neige_Material_0","primitives":[{"attributes":{"NORMAL":189,"POSITION":188,"TEXCOORD_0":190},"indices":191,"material":2,"mode":4}]},{"name":"Neige_26_Neige_Material_0","primitives":[{"attributes":{"NORMAL":193,"POSITION":192,"TEXCOORD_0":194},"indices":195,"material":2,"mode":4}]},{"name":"Neige_27_Neige_Material_0","primitives":[{"attributes":{"NORMAL":197,"POSITION":196,"TEXCOORD_0":198},"indices":199,"material":2,"mode":4}]},{"name":"Neige_28_Neige_Material_0","primitives":[{"attributes":{"NORMAL":201,"POSITION":200,"TEXCOORD_0":202},"indices":203,"material":2,"mode":4}]},{"name":"Neige_29_Neige_Material_0","primitives":[{"attributes":{"NORMAL":205,"POSITION":204,"TEXCOORD_0":206},"indices":207,"material":2,"mode":4}]},{"name":"Neige_30_Neige_Material_0","primitives":[{"attributes":{"NORMAL":209,"POSITION":208,"TEXCOORD_0":210},"indices":211,"material":2,"mode":4}]}],"nodes":[{"children":[1],"matrix":[1,0,0,0,0,2.220446049250313e-16,-1,0,0,1,2.220446049250313e-16,0,0,0,0,1],"name":"Sketchfab_model"},{"children":[2],"matrix":[1,0,0,0,0,0,1,0,0,-1,0,0,0,0,0,1],"name":"d5a31b6a0149405983d1bc29a2cc4931.fbx"},{"children":[3],"name":"Object_2"},{"children":[4],"name":"RootNode"},{"children":[5,33,38,49,54,59],"name":"Plateau"},{"children":[6,20],"name":"BonhommeDeNeige","rotation":[-0.015268840827047825,0.08002744615077972,0.03578310087323189,0.996033251285553],"translation":[-93.61237335205078,39.110530853271484,2.076887607574463]},{"children":[7,9,11,13,15],"name":"Tete","rotation":[0.01625882089138031,-0.002552939346060157,0.004171555396169424,0.9998558759689331],"translation":[1.0326478481292725,0.06906881183385849,-3.9825215339660645]},{"children":[8],"name":"OeilGauche","rotation":[-0.005796861369162798,-0.07320170104503632,-0.17870163917541504,0.9811594486236572],"scale":[0.975562334060669,0.975562334060669,0.975562334060669],"translation":[-51.08406066894531,17.844711303710938,-2.973052740097046]},{"mesh":0,"name":"OeilGauche_Caillou_Material_0"},{"children":[10],"name":"OeilDroit","rotation":[-0.031248336657881737,0.02671620063483715,0.06595762073993683,0.9969751238822937],"translation":[20.39557647705078,0.9331103563308716,9.284729957580566]},{"mesh":1,"name":"OeilDroit_Caillou_Material_0"},{"children":[12],"name":"Carotte","rotation":[-2.527783052008247e-34,2.7755575615628914e-17,9.107298248878237e-18,1]},{"mesh":2,"name":"Carotte_Carotte_Material_0"},{"children":[14],"name":"BouleHaute","rotation":[-2.527783052008247e-34,2.7755575615628914e-17,9.107298248878237e-18,1]},{"mesh":3,"name":"BouleHaute_Neige_Material_0"},{"children":[16,18],"name":"Chapeau","rotation":[-0.12010733783245087,0.01468481682240963,0.09601756185293198,0.9879975914955139],"scale":[0.9356052279472351,0.9356052279472351,0.9356052279472351],"translation":[38.76625061035156,-15.864853858947754,44.619876861572266]},{"children":[17],"name":"ChapeauBandeau","rotation":[-5.752469413066911e-17,-1.4381173532667277e-17,3.2357641275681986e-17,1],"scale":[0.964996874332428,0.964996874332428,0.964996874332428],"translation":[-7.105427357601002e-15,2.8443562984466553,0]},{"mesh":4,"name":"ChapeauBandeau_ChapeauBandeau_Material_0"},{"children":[19],"name":"ChapeauCorps","rotation":[-4.163336342344337e-17,-2.7755575615628914e-17,1.0408340855860843e-17,1]},{"mesh":5,"name":"ChapeauCorps_Chapeau_Material_0"},{"children":[21,23,25,27,29,31],"name":"Corps","rotation":[-5.204170427930421e-18,1.8055593228630336e-35,-3.469446951953614e-18,1]},{"children":[22],"name":"BoutonHaut","rotation":[-0.013211695477366447,0.07314584404230118,0.10908360034227371,0.991249680519104],"scale":[0.9153916239738464,0.9153916239738464,0.9153916239738464],"translation":[13.459588050842285,8.764365196228027,5.759556770324707]},{"mesh":6,"name":"BoutonHaut_Caillou_Material_0"},{"children":[24],"name":"BouleBasse","rotation":[-1.734723475976807e-18,6.770847460736376e-36,-3.903127820947816e-18,1]},{"mesh":7,"name":"BouleBasse_Neige_Material_0"},{"children":[26],"name":"BoutonMilieu","rotation":[0.012241402640938759,-0.03875356540083885,-0.20831400156021118,0.9772173762321472],"translation":[-25.51896095275879,6.995614051818848,-2.801025629043579]},{"mesh":8,"name":"BoutonMilieu_Caillou_Material_0"},{"children":[28],"name":"BoutonBas","rotation":[0.013115866109728813,0.006262701004743576,-0.09836441278457642,0.9950444102287292],"scale":[0.8913822174072266,0.8913822174072266,0.8913822174072266],"translation":[-8.685081481933594,7.379062652587891,5.652312278747559]},{"mesh":9,"name":"BoutonBas_Caillou_Material_0"},{"children":[30],"name":"BrasGauche","rotation":[0.08117485791444778,-0.04702386260032654,-0.09825313836336136,0.9907299876213074],"translation":[-32.45889663696289,17.284656524658203,-29.596651077270508]},{"mesh":10,"name":"BrasGauche_Branche_Material_0"},{"children":[32],"name":"BrasDroit","rotation":[0.14785364270210266,0.079070545732975,0.06206512078642845,0.9838877320289612],"translation":[14.996316909790039,19.907814025878906,-36.08549880981445]},{"mesh":11,"name":"BrasDroit_Branche_Material_0"},{"children":[34,36],"name":"Plateau"},{"children":[35],"name":"PlateauNeige"},{"mesh":12,"name":"PlateauNeige_Neige_Material_0"},{"children":[37],"name":"Plateau"},{"mesh":13,"name":"Plateau_Socle_Material_0"},{"children":[39,41,43,45,47],"name":"Arbre","rotation":[-0.0683777928352356,-0.562514066696167,0.003033772110939026,0.8239497542381287],"translation":[62.68259811401367,46.45229721069336,-44.4593620300293]},{"children":[40],"name":"BrancheHauteNeige","rotation":[-3.469446951953614e-18,2.407412430484045e-35,-6.938893903907228e-18,1],"translation":[0,7.105427357601002e-15,0]},{"mesh":14,"name":"BrancheHauteNeige_Neige_Material_0"},{"children":[42],"name":"BrancheHaute","rotation":[-3.469446951953614e-18,2.407412430484045e-35,-6.938893903907228e-18,1],"translation":[0,7.105427357601002e-15,0]},{"mesh":15,"name":"BrancheHaute_SapinEpine_Material_0"},{"children":[44],"name":"BrancheBasseNeige","rotation":[-3.469446951953614e-18,2.407412430484045e-35,-6.938893903907228e-18,1],"translation":[0,7.105427357601002e-15,0]},{"mesh":16,"name":"BrancheBasseNeige_Neige_Material_0"},{"children":[46],"name":"BrancheBasse","rotation":[-3.469446951953614e-18,2.407412430484045e-35,-6.938893903907228e-18,1],"translation":[0,7.105427357601002e-15,0]},{"mesh":17,"name":"BrancheBasse_SapinEpine_Material_0"},{"children":[48],"name":"Tronc","rotation":[-3.469446951953614e-18,2.407412430484045e-35,-6.938893903907228e-18,1],"translation":[0,7.105427357601002e-15,0]},{"mesh":18,"name":"Tronc_Tronc_Material_0"},{"children":[50,52],"name":"CadeauA","rotation":[0.07860342413187027,0.2875402569770813,0.0384429395198822,0.9537633061408997],"scale":[0.699999988079071,0.699999988079071,0.699999988079071],"translation":[-16.087522506713867,45.51762390136719,102.51594543457031]},{"children":[51],"name":"CadeauBande","rotation":[1.3877787807814457e-17,8.326672684688674e-17,-1.3877787807814457e-17,1]},{"mesh":19,"name":"CadeauBande_CadeauBande_Material_0"},{"children":[53],"name":"CadeauPaquet","rotation":[1.3877787807814457e-17,8.326672684688674e-17,-1.3877787807814457e-17,1],"translation":[0,50,0]},{"mesh":20,"name":"CadeauPaquet_CadeauPaquet_Material_0"},{"children":[55,57],"name":"CadeauB","rotation":[0.04865730181336403,-0.32265952229499817,-0.07955072075128555,0.9419103860855103],"scale":[0.5,0.5,0.5],"translation":[59.12043762207031,46.9504280090332,87.75897216796875]},{"children":[56],"name":"CadeauBande","rotation":[2.0816681711721685e-17,-1.1102230246251565e-16,-6.938893903907228e-18,1]},{"mesh":21,"name":"CadeauBande_CadeauBande_Material_0"},{"children":[58],"name":"CadeauPaquet","rotation":[2.0816681711721685e-17,-1.1102230246251565e-16,-6.938893903907228e-18,1],"translation":[0,50,0]},{"mesh":22,"name":"CadeauPaquet_CadeauPaquet_Material_0"},{"children":[60,62,64,66,68,70,72,74,76,78,80,82,84,86,88,90,92,94,96,98,100,102,104,106,108,110,112,114,116,118],"name":"Flocons"},{"children":[61],"name":"Neige_1","translation":[-28.8024959564209,200,44.419620513916016]},{"mesh":23,"name":"Neige_1_Neige_Material_0"},{"children":[63],"name":"Neige_2","translation":[-21.234193801879883,445.8333435058594,45.22257614135742]},{"mesh":24,"name":"Neige_2_Neige_Material_0"},{"children":[65],"name":"Neige_3","translation":[-10.594840049743652,183.3333282470703,10.42229175567627]},{"mesh":25,"name":"Neige_3_Neige_Material_0"},{"children":[67],"name":"Neige_4","translation":[-12.80517578125,16.66666603088379,48.41766357421875]},{"mesh":26,"name":"Neige_4_Neige_Material_0"},{"children":[69],"name":"Neige_5","translation":[38.346134185791016,187.5,4.392494201660156]},{"mesh":27,"name":"Neige_5_Neige_Material_0"},{"children":[71],"name":"Neige_6","translation":[-34.70153045654297,104.16666412353516,45.22257614135742]},{"mesh":28,"name":"Neige_6_Neige_Material_0"},{"children":[73],"name":"Neige_7","translation":[-19.19910430908203,100,39.4762077331543]},{"mesh":29,"name":"Neige_7_Neige_Material_0"},{"children":[75],"name":"Neige_8","translation":[44.13313293457031,370.8333435058594,26.33039093017578]},{"mesh":30,"name":"Neige_8_Neige_Material_0"},{"children":[77],"name":"Neige_9","translation":[39.87610626220703,41.66666793823242,16.95623207092285]},{"mesh":31,"name":"Neige_9_Neige_Material_0"},{"children":[79],"name":"Neige_10","translation":[38.346134185791016,412.5,14.668074607849121]},{"mesh":32,"name":"Neige_10_Neige_Material_0"},{"children":[81],"name":"Neige_11","translation":[-33.60365676879883,375,5.1246466636657715]},{"mesh":33,"name":"Neige_11_Neige_Material_0"},{"children":[83],"name":"Neige_12","translation":[-36.38011169433594,341.6666564941406,39.4762077331543]},{"mesh":34,"name":"Neige_12_Neige_Material_0"},{"children":[85],"name":"Neige_13","translation":[-42.95013427734375,370.8333435058594,49.55272674560547]},{"mesh":35,"name":"Neige_13_Neige_Material_0"},{"children":[87],"name":"Neige_14","translation":[-39.96647644042969,395.8333435058594,44.419620513916016]},{"mesh":36,"name":"Neige_14_Neige_Material_0"},{"children":[89],"name":"Neige_15","translation":[-3.79888916015625,433.3333435058594,38.30522537231445]},{"mesh":37,"name":"Neige_15_Neige_Material_0"},{"children":[91],"name":"Neige_16","translation":[-42.78369903564453,483.3333435058594,22.337242126464844]},{"mesh":38,"name":"Neige_16_Neige_Material_0"},{"children":[93],"name":"Neige_17","translation":[-41.393367767333984,329.1666564941406,7.339455604553223]},{"mesh":39,"name":"Neige_17_Neige_Material_0"},{"children":[95],"name":"Neige_18","translation":[-28.756038665771484,300,0.2437112033367157]},{"mesh":40,"name":"Neige_18_Neige_Material_0"},{"children":[97],"name":"Neige_19","translation":[-39.10572052001953,233.3333282470703,30.684356689453125]},{"mesh":41,"name":"Neige_19_Neige_Material_0"},{"children":[99],"name":"Neige_20","translation":[42.652557373046875,216.6666717529297,18.588001251220703]},{"mesh":42,"name":"Neige_20_Neige_Material_0"},{"children":[101],"name":"Neige_21","translation":[-26.978662490844727,333.3333435058594,29.397178649902344]},{"mesh":43,"name":"Neige_21_Neige_Material_0"},{"children":[103],"name":"Neige_22","translation":[-43.04356002807617,258.3333435058594,29.397178649902344]},{"mesh":44,"name":"Neige_22_Neige_Material_0"},{"children":[105],"name":"Neige_23","translation":[-37.09407043457031,350,48.824790954589844]},{"mesh":45,"name":"Neige_23_Neige_Material_0"},{"children":[107],"name":"Neige_24","translation":[-41.427040100097656,212.5,8.497294425964355]},{"mesh":46,"name":"Neige_24_Neige_Material_0"},{"children":[109],"name":"Neige_25","translation":[-43.04356002807617,316.6666564941406,45.22257614135742]},{"mesh":47,"name":"Neige_25_Neige_Material_0"},{"children":[111],"name":"Neige_26","translation":[-32.073692321777344,112.5,46.06538009643555]},{"mesh":48,"name":"Neige_26_Neige_Material_0"},{"children":[113],"name":"Neige_27","translation":[-25.12912940979004,300,18.134490966796875]},{"mesh":49,"name":"Neige_27_Neige_Material_0"},{"children":[115],"name":"Neige_28","translation":[35.028480529785156,145.8333282470703,2.6419389247894287]},{"mesh":50,"name":"Neige_28_Neige_Material_0"},{"children":[117],"name":"Neige_29","translation":[47.69947814941406,441.6666564941406,13.562249183654785]},{"mesh":51,"name":"Neige_29_Neige_Material_0"},{"children":[119],"name":"Neige_30","translation":[36.72854232788086,100,47.387264251708984]},{"mesh":52,"name":"Neige_30_Neige_Material_0"}],"scene":0,"scenes":[{"name":"Sketchfab_Scene","nodes":[0]}]}